<svg preserveAspectRatio="none" width="100%" height="100%" overflow="visible" style="display: block;" viewBox="0 0 512 494.895" fill="none" xmlns="http://www.w3.org/2000/svg">
<path id="Vector" d="M317.189 436.452C316.19 436.452 313.193 434.953 312.693 433.954C308.697 418.469 314.192 416.97 314.691 410.477C315.69 401.985 322.184 402.984 318.188 393.993C316.19 393.993 314.192 393.993 312.693 393.493C308.198 391.995 312.194 382.504 306.699 381.505C305.7 382.504 303.203 384.502 303.203 386L302.204 394.992C302.204 396.49 299.706 398.988 298.707 398.988L292.713 399.987C288.717 408.479 290.215 406.98 289.716 415.971C286.719 417.47 284.221 420.467 285.72 423.964C288.717 423.964 293.212 424.463 294.711 427.46L296.709 432.455C300.705 433.954 303.702 435.452 307.199 437.95L308.198 443.944C304.202 447.441 300.705 450.937 298.207 455.933C297.708 457.431 297.208 459.929 296.209 461.427L288.217 471.917C285.72 475.414 280.225 476.413 278.227 479.909L270.235 494.895C267.237 494.395 264.24 493.896 261.243 493.396L258.246 483.406C257.747 481.408 256.748 478.91 255.749 477.412L259.245 466.922C256.248 463.425 252.252 460.928 251.752 456.432C251.253 451.937 254.75 445.443 260.244 443.445L272.732 437.95L274.73 424.463L283.222 417.47C284.221 415.971 284.221 411.975 284.221 410.477C275.23 405.981 274.73 403.484 265.739 399.987C260.744 397.989 256.248 395.491 252.752 391.495C252.252 388.498 253.751 385.501 255.749 383.003C255.249 381.005 254.25 378.008 252.752 376.51L242.262 367.019C225.778 351.534 220.783 356.03 217.286 354.031C212.291 351.534 205.298 344.041 203.799 341.044L200.802 333.052C199.803 331.054 197.805 329.056 195.807 327.058C184.817 322.562 181.321 327.557 171.331 322.063C170.332 318.566 169.832 315.069 166.835 313.071C164.337 311.573 160.341 311.573 159.342 314.07C158.843 315.069 158.343 316.568 157.344 317.067C156.845 317.567 154.847 317.567 153.848 317.067C148.353 315.069 151.35 313.071 147.354 309.575C143.358 306.078 141.36 302.082 140.86 296.587C140.361 293.091 135.365 289.094 131.369 282.101C129.371 278.605 125.375 277.106 121.879 279.604L122.378 288.095L118.382 292.591L118.881 299.085L112.388 304.08C108.392 303.081 102.397 297.586 105.894 293.59C106.394 293.091 107.892 292.092 108.891 291.592C109.391 291.093 109.89 288.095 108.891 287.596L104.395 284.599L103.896 278.605C103.896 277.106 101.398 274.109 100.399 273.11C88.9105 264.119 88.411 268.614 85.4139 266.117C82.4168 263.619 78.9202 260.123 77.4217 256.626C76.4226 254.128 76.9222 250.132 72.926 249.633C67.9309 248.634 62.9357 247.135 58.4401 244.638C53.4449 242.14 58.4401 240.642 53.9445 234.148C51.9464 231.151 50.4478 228.154 46.9512 226.655C40.4575 224.158 38.4595 225.157 31.4663 225.656C29.4682 228.653 28.4692 232.649 25.9716 235.147C22.475 238.144 18.4789 241.141 15.4818 244.138C12.4847 247.135 7.48953 247.135 3.99292 245.137C-0.502717 236.645 -1.00223 239.642 1.49534 229.652L11.9852 222.159C10.9861 218.663 9.9871 215.666 10.4866 212.669C15.4818 209.172 20.9764 207.174 25.9716 204.177C28.9687 200.181 30.4672 194.686 33.9638 191.189C38.4595 186.694 43.4546 184.196 48.4498 180.2C49.9483 178.702 51.9464 175.205 52.4459 172.707C53.4449 167.213 53.9444 160.22 59.4391 157.222C63.4352 154.725 68.9299 154.225 73.4256 152.727C77.9212 151.728 80.4188 147.232 78.4207 143.236L75.4236 141.238C75.4236 139.24 74.9241 136.742 75.4236 134.245C75.9231 132.746 77.9212 129.25 79.4197 128.75L93.9057 121.757C93.9057 116.762 94.4052 111.767 95.9037 107.271C97.4023 106.272 99.4003 104.274 100.899 104.274L110.39 102.775C115.884 96.2816 113.387 97.2806 113.886 88.7889C116.384 85.7918 120.38 83.2942 124.376 82.2952L130.87 82.7947C137.363 78.299 136.864 71.8053 141.859 64.3126C144.357 63.3136 147.354 60.816 149.851 61.3155L159.342 62.3145C160.841 62.3145 163.338 60.3165 164.837 58.8179L167.834 45.331C170.332 39.8363 181.82 38.8373 187.315 37.3388C190.312 36.8393 193.309 35.3407 196.306 33.8422C200.302 32.3436 204.798 32.3436 208.295 30.8451C211.791 28.847 214.788 24.8509 218.285 22.8528C227.276 17.3582 235.268 11.8635 243.76 4.87027C245.758 6.86833 246.757 8.8664 248.256 11.364C256.248 12.8625 259.745 13.8615 265.739 6.86833C266.238 4.37076 266.738 1.37367 268.736 0.374637C269.735 -0.124879 272.233 -0.124879 272.732 0.374637C276.728 3.87124 273.232 12.363 279.226 12.8625C282.722 12.8625 285.22 10.3649 286.219 7.36785C286.719 5.8693 289.216 3.87124 290.715 5.36979C293.212 7.36785 293.712 10.8645 294.211 14.3611C295.71 15.8596 297.208 17.3582 298.707 17.8577C301.204 19.3562 303.203 16.3591 303.702 14.3611L304.701 10.3649C306.699 9.36591 309.197 8.8664 310.695 9.86543C313.193 11.364 313.692 13.362 313.692 16.3591C313.193 18.8567 319.187 23.3523 320.686 22.8528C325.181 21.3543 321.185 17.3582 324.682 14.8606C328.178 12.363 331.175 14.3611 334.173 14.8606C338.169 15.8596 341.665 16.8586 345.162 18.8567C348.159 20.3552 352.155 20.8548 355.652 22.3533C359.648 23.8519 362.145 27.848 365.142 29.846C370.138 31.8441 376.132 30.8451 381.127 33.3426L385.623 37.3388C406.103 41.8344 402.107 42.3339 416.093 55.8208L424.085 58.8179L428.581 69.3077C429.58 71.3058 433.077 72.3048 434.575 73.8034C436.573 78.299 437.073 83.7937 440.569 87.2903L448.062 95.2826C450.06 97.2806 450.06 100.777 451.059 103.774C452.058 104.274 454.556 105.772 455.555 105.772L475.036 107.271C482.029 113.265 485.026 115.763 495.016 111.767C498.014 110.768 500.511 108.27 504.008 108.769C508.503 109.768 512 114.264 512 118.76C504.507 130.748 504.507 126.752 498.014 131.747C495.516 133.745 494.517 135.743 494.017 138.74C494.017 140.738 495.016 141.238 496.015 142.737C499.013 145.734 494.517 148.231 493.018 149.73C490.021 152.727 488.023 154.725 484.027 156.223C482.529 156.723 480.031 158.721 479.032 160.22C478.033 161.718 478.532 165.215 479.032 167.213C483.028 170.21 488.523 168.711 492.019 165.215C494.017 162.717 497.015 160.719 500.511 161.219C503.508 161.219 507.005 165.714 509.003 168.212C499.013 186.194 490.521 176.204 492.519 194.187C493.518 201.679 487.524 204.177 483.528 213.168L472.538 240.142L467.543 248.634C466.045 251.631 466.544 256.126 464.546 259.124C460.05 267.116 454.556 274.109 449.561 281.102L434.575 301.582C432.078 305.079 428.581 308.076 426.583 312.072C422.087 319.565 414.594 319.565 410.099 328.556L409.1 335.05C404.604 338.547 400.109 341.044 396.112 345.04C393.115 347.538 390.618 351.534 387.621 354.531L362.645 367.518L360.147 372.014C358.149 374.012 354.153 374.012 352.155 372.514C350.157 366.519 350.657 359.526 353.654 354.031C356.651 353.032 359.648 355.53 361.646 358.028C362.645 359.027 365.642 358.527 366.641 357.029C369.139 354.031 373.135 353.032 375.632 350.035L381.127 343.042C391.117 331.054 388.12 330.055 399.11 328.057L401.108 325.06C404.105 323.062 406.602 321.063 409.1 318.566C408.6 315.569 408.101 313.571 407.601 311.073C407.102 306.078 410.099 300.583 415.094 299.085C417.092 298.585 418.591 298.086 420.589 297.586V287.096L426.583 285.098C446.563 279.104 434.575 265.617 441.568 251.631L450.56 249.633C451.559 246.636 452.558 242.64 452.058 239.143C451.559 235.646 445.065 232.15 441.069 233.648C435.574 236.146 439.57 240.142 433.576 242.14C432.577 242.64 430.579 243.139 430.079 244.138L428.081 250.132C424.085 251.131 419.09 250.632 416.093 247.135C413.595 244.138 416.593 236.645 415.594 230.651C415.094 229.652 413.096 227.155 412.097 226.655C410.099 225.656 407.102 225.656 405.104 225.656L402.107 229.652C398.61 246.136 409.1 241.641 409.1 254.628L405.603 258.624C404.604 259.623 406.103 262.62 405.603 263.619C405.603 266.117 404.604 270.113 403.605 272.111L396.112 278.605L397.611 285.598C397.111 289.094 393.615 290.094 390.118 290.593C388.62 293.091 389.119 296.587 388.62 300.084C385.623 305.578 376.631 303.081 378.13 312.072C378.13 313.071 377.63 315.569 376.631 315.569C369.139 314.07 362.645 315.069 356.151 319.565C357.15 329.056 356.651 324.56 354.153 333.052C357.15 343.042 348.159 344.041 343.663 348.037C340.167 351.034 341.166 355.031 341.166 358.527C341.665 371.015 353.654 366.519 347.659 382.504L341.166 387C338.169 388.998 336.171 391.995 334.173 394.992C331.675 398.488 331.675 402.984 330.176 406.98C326.18 416.97 317.189 415.971 322.184 432.955C321.185 433.954 318.688 435.952 317.189 436.452Z" fill="var(--fill-0, white)"/>
</svg>
