<svg preserveAspectRatio="none" width="100%" height="100%" overflow="visible" style="display: block;" viewBox="0 0 8 8" fill="none" xmlns="http://www.w3.org/2000/svg">
<g id="lucide/pin">
<g id="Vector">
<path d="M4.00008 5.66663V7.33329Z" fill="var(--fill-0, #78001F)"/>
<path d="M3.00008 3.58663C3.00002 3.71065 2.96535 3.8322 2.89999 3.93761C2.83462 4.04302 2.74115 4.1281 2.63008 4.18329L2.03675 4.48329C1.92568 4.53848 1.83221 4.62357 1.76684 4.72897C1.70148 4.83438 1.66681 4.95593 1.66675 5.07996V5.33329C1.66675 5.4217 1.70187 5.50648 1.76438 5.56899C1.82689 5.63151 1.91168 5.66663 2.00008 5.66663H6.00008C6.08849 5.66663 6.17327 5.63151 6.23578 5.56899C6.2983 5.50648 6.33341 5.4217 6.33341 5.33329V5.07996C6.33335 4.95593 6.29869 4.83438 6.23332 4.72897C6.16796 4.62357 6.07449 4.53848 5.96341 4.48329L5.37008 4.18329C5.25901 4.1281 5.16554 4.04302 5.10017 3.93761C5.03481 3.8322 5.00015 3.71065 5.00008 3.58663V2.33329C5.00008 2.24489 5.0352 2.1601 5.09771 2.09759C5.16022 2.03508 5.24501 1.99996 5.33341 1.99996C5.51023 1.99996 5.67979 1.92972 5.80482 1.8047C5.92984 1.67967 6.00008 1.5101 6.00008 1.33329C6.00008 1.15648 5.92984 0.986912 5.80482 0.861888C5.67979 0.736864 5.51023 0.666626 5.33341 0.666626H2.66675C2.48994 0.666626 2.32037 0.736864 2.19534 0.861888C2.07032 0.986912 2.00008 1.15648 2.00008 1.33329C2.00008 1.5101 2.07032 1.67967 2.19534 1.8047C2.32037 1.92972 2.48994 1.99996 2.66675 1.99996C2.75515 1.99996 2.83994 2.03508 2.90245 2.09759C2.96496 2.1601 3.00008 2.24489 3.00008 2.33329V3.58663Z" fill="var(--fill-0, #78001F)"/>
<path d="M4.00008 5.66663V7.33329M3.00008 3.58663C3.00002 3.71065 2.96535 3.8322 2.89999 3.93761C2.83462 4.04302 2.74115 4.1281 2.63008 4.18329L2.03675 4.48329C1.92568 4.53848 1.83221 4.62357 1.76684 4.72897C1.70148 4.83438 1.66681 4.95593 1.66675 5.07996V5.33329C1.66675 5.4217 1.70187 5.50648 1.76438 5.56899C1.82689 5.63151 1.91168 5.66663 2.00008 5.66663H6.00008C6.08849 5.66663 6.17327 5.63151 6.23578 5.56899C6.2983 5.50648 6.33341 5.4217 6.33341 5.33329V5.07996C6.33335 4.95593 6.29869 4.83438 6.23332 4.72897C6.16796 4.62357 6.07449 4.53848 5.96341 4.48329L5.37008 4.18329C5.25901 4.1281 5.16554 4.04302 5.10017 3.93761C5.03481 3.8322 5.00015 3.71065 5.00008 3.58663V2.33329C5.00008 2.24489 5.0352 2.1601 5.09771 2.09759C5.16022 2.03508 5.24501 1.99996 5.33341 1.99996C5.51023 1.99996 5.67979 1.92972 5.80482 1.8047C5.92984 1.67967 6.00008 1.5101 6.00008 1.33329C6.00008 1.15648 5.92984 0.986912 5.80482 0.861888C5.67979 0.736864 5.51023 0.666626 5.33341 0.666626H2.66675C2.48994 0.666626 2.32037 0.736864 2.19534 0.861888C2.07032 0.986912 2.00008 1.15648 2.00008 1.33329C2.00008 1.5101 2.07032 1.67967 2.19534 1.8047C2.32037 1.92972 2.48994 1.99996 2.66675 1.99996C2.75515 1.99996 2.83994 2.03508 2.90245 2.09759C2.96496 2.1601 3.00008 2.24489 3.00008 2.33329V3.58663Z" stroke="var(--stroke-0, #78001F)" stroke-linecap="round" stroke-linejoin="round"/>
</g>
</g>
</svg>
