<svg preserveAspectRatio="none" width="100%" height="100%" overflow="visible" style="display: block;" viewBox="0 0 8 8" fill="none" xmlns="http://www.w3.org/2000/svg">
<g id="lucide/pin">
<g id="Vector">
<path d="M4 5.66667V7.33333Z" fill="var(--fill-0, #78001F)"/>
<path d="M3 3.58667C2.99993 3.71069 2.96527 3.83224 2.89991 3.93765C2.83454 4.04306 2.74107 4.12814 2.63 4.18333L2.03667 4.48333C1.9256 4.53853 1.83212 4.62361 1.76676 4.72901C1.7014 4.83442 1.66673 4.95597 1.66667 5.08V5.33333C1.66667 5.42174 1.70179 5.50652 1.7643 5.56904C1.82681 5.63155 1.91159 5.66667 2 5.66667H6C6.08841 5.66667 6.17319 5.63155 6.2357 5.56904C6.29821 5.50652 6.33333 5.42174 6.33333 5.33333V5.08C6.33327 4.95597 6.2986 4.83442 6.23324 4.72901C6.16788 4.62361 6.0744 4.53853 5.96333 4.48333L5.37 4.18333C5.25893 4.12814 5.16546 4.04306 5.10009 3.93765C5.03473 3.83224 5.00007 3.71069 5 3.58667V2.33333C5 2.24493 5.03512 2.16014 5.09763 2.09763C5.16014 2.03512 5.24493 2 5.33333 2C5.51014 2 5.67971 1.92976 5.80474 1.80474C5.92976 1.67971 6 1.51014 6 1.33333C6 1.15652 5.92976 0.986953 5.80474 0.861929C5.67971 0.736905 5.51014 0.666667 5.33333 0.666667H2.66667C2.48986 0.666667 2.32029 0.736905 2.19526 0.861929C2.07024 0.986953 2 1.15652 2 1.33333C2 1.51014 2.07024 1.67971 2.19526 1.80474C2.32029 1.92976 2.48986 2 2.66667 2C2.75507 2 2.83986 2.03512 2.90237 2.09763C2.96488 2.16014 3 2.24493 3 2.33333V3.58667Z" fill="var(--fill-0, #78001F)"/>
<path d="M4 5.66667V7.33333M3 3.58667C2.99993 3.71069 2.96527 3.83224 2.89991 3.93765C2.83454 4.04306 2.74107 4.12814 2.63 4.18333L2.03667 4.48333C1.9256 4.53853 1.83212 4.62361 1.76676 4.72901C1.7014 4.83442 1.66673 4.95597 1.66667 5.08V5.33333C1.66667 5.42174 1.70179 5.50652 1.7643 5.56904C1.82681 5.63155 1.91159 5.66667 2 5.66667H6C6.08841 5.66667 6.17319 5.63155 6.2357 5.56904C6.29821 5.50652 6.33333 5.42174 6.33333 5.33333V5.08C6.33327 4.95597 6.2986 4.83442 6.23324 4.72901C6.16788 4.62361 6.0744 4.53853 5.96333 4.48333L5.37 4.18333C5.25893 4.12814 5.16546 4.04306 5.10009 3.93765C5.03473 3.83224 5.00007 3.71069 5 3.58667V2.33333C5 2.24493 5.03512 2.16014 5.09763 2.09763C5.16014 2.03512 5.24493 2 5.33333 2C5.51014 2 5.67971 1.92976 5.80474 1.80474C5.92976 1.67971 6 1.51014 6 1.33333C6 1.15652 5.92976 0.986953 5.80474 0.861929C5.67971 0.736905 5.51014 0.666667 5.33333 0.666667H2.66667C2.48986 0.666667 2.32029 0.736905 2.19526 0.861929C2.07024 0.986953 2 1.15652 2 1.33333C2 1.51014 2.07024 1.67971 2.19526 1.80474C2.32029 1.92976 2.48986 2 2.66667 2C2.75507 2 2.83986 2.03512 2.90237 2.09763C2.96488 2.16014 3 2.24493 3 2.33333V3.58667Z" stroke="var(--stroke-0, #78001F)" stroke-linecap="round" stroke-linejoin="round"/>
</g>
</g>
</svg>
