<svg preserveAspectRatio="xMidYMid meet" overflow="visible" style="display: block;" viewBox="0 0 81.0686 29.0001" fill="none" xmlns="http://www.w3.org/2000/svg">
<g id="Group 5">
<path id="Vector" d="M61.7849 0.0851957C65.3234 -0.487805 68.6635 1.88958 69.2672 5.41067C69.8709 8.93176 67.5119 12.279 63.983 12.9086C60.4135 13.5454 57.0072 11.1621 56.3964 7.6007C55.7863 4.03939 58.2058 0.664704 61.7849 0.0851957ZM63.3276 11.7552C68.11 11.1511 68.4445 4.39615 65.3767 2.09939C64.5262 1.46132 63.4677 1.16073 62.4069 1.25611C57.6874 1.86149 57.1402 8.47961 60.3323 10.8871C61.1892 11.5349 62.2556 11.8441 63.3276 11.7552Z" fill="var(--fill-0, #464646)"/>
<path id="Vector_2" d="M14.1703 0.0862577C17.7127 -0.491028 21.0584 1.88985 21.6597 5.41594C22.261 8.9421 19.8925 12.2903 16.3572 12.9111C12.7909 13.5375 9.39416 11.1519 8.78809 7.59486C8.18122 4.03783 10.5967 0.668543 14.1703 0.0862577ZM15.701 11.7577C16.898 11.6078 17.9014 11.1884 18.6349 10.207C20.2915 7.98853 20.1091 3.87611 17.8107 2.13306C16.9975 1.5161 15.8029 1.12021 14.793 1.26003C8.65667 2.05673 9.88236 12.3439 15.701 11.7577Z" fill="var(--fill-0, #464646)"/>
<path id="Vector_3" d="M48.349 0.23336C49.8877 0.0526755 51.9687 0.152499 52.969 1.51243C53.4229 2.13503 53.6045 2.91427 53.4723 3.67248C53.313 4.55971 52.8057 5.17215 52.0889 5.67564C54.7864 6.78228 55.3439 10.114 53.1275 11.9104C53.0661 11.9545 53.004 11.9978 52.9411 12.0402C51.1396 13.2646 48.6819 12.9413 46.6678 12.5634C46.7466 10.3394 46.6558 7.83243 46.6861 5.58026C46.7036 4.2773 46.749 1.65646 46.6104 0.477923C47.1719 0.349928 47.774 0.296604 48.349 0.23336ZM48.4557 11.5974C49.5874 11.762 50.5989 11.8671 51.5856 11.1375C51.6286 11.1067 51.6692 11.0739 51.7091 11.0392C52.2554 10.4519 52.6178 9.72886 52.5875 8.91027C52.5596 8.28275 52.2745 7.69435 51.7983 7.28291C51.0289 6.60636 49.9498 6.48178 48.9662 6.55565C48.8061 6.56795 48.646 6.5839 48.4876 6.60342C48.3737 8.14896 48.5314 10.0233 48.4557 11.5974ZM48.4613 5.45083C49.1311 5.33117 49.9745 5.33268 50.661 5.34696L51.1301 5.00916C51.8604 3.9948 52.0834 2.67161 50.9158 1.83317C50.1879 1.31025 49.2959 1.34992 48.439 1.40682C48.47 2.75461 48.4772 4.1028 48.4613 5.45083Z" fill="var(--fill-0, #464646)"/>
<path id="Vector_4" d="M1.73858 0.233532C3.29079 0.133786 5.1528 0.0729234 6.25584 1.38858C6.74324 1.96396 6.97181 2.71352 6.88819 3.46173C6.77828 4.4499 6.24628 5.0936 5.50084 5.68089C8.13458 6.77968 8.67773 9.82394 6.64449 11.8089C6.53379 11.8866 6.42308 11.9636 6.31158 12.0398C4.5085 13.261 2.07865 12.9454 0.0645142 12.5667C0.125042 9.62865 0.0398289 6.66057 0.0780568 3.71978C0.0915958 2.65385 0.0836235 1.53292 0 0.471745C0.590143 0.355177 1.14286 0.299235 1.73858 0.233532ZM1.83017 11.5956C3.01205 11.7627 4.09038 11.8753 5.0859 11.0465C5.63543 10.4753 5.98983 9.76149 5.97311 8.95408C5.96116 8.33125 5.69118 7.74111 5.22687 7.3234C4.46709 6.63216 3.44211 6.49068 2.45535 6.54805C2.29368 6.55781 2.132 6.57114 1.97033 6.58804L1.85166 6.67295C1.7537 7.90735 1.82698 10.2765 1.83017 11.5956ZM1.82937 5.45442C2.53898 5.33261 3.36565 5.32873 4.088 5.34936L4.56426 4.95569C5.26908 3.93499 5.43155 2.62488 4.29586 1.82597C3.55201 1.30232 2.68153 1.35311 1.8214 1.41119L1.82937 5.45442Z" fill="var(--fill-0, #464646)"/>
<path id="Vector_5" d="M37.8679 0.232494C40.1018 -0.010482 42.9323 0.344459 43.3695 3.0306C43.6706 4.87594 42.8343 6.13612 41.2909 7.07169C42.5532 9.00335 43.7462 10.9999 45.3247 12.684C43.2931 13.1028 42.9554 12.7948 41.8157 11.1128C41.0663 10.0518 40.4013 8.75228 39.612 7.75388C39.3365 7.40576 38.3673 7.49939 37.887 7.51225C37.9045 8.30378 37.9866 12.0123 37.7914 12.5715C37.4514 12.8798 36.5522 12.8253 36.0648 12.8347C36.1445 10.2266 36.1723 7.61723 36.1468 5.00806C36.1476 3.7754 36.2034 1.64044 36.0656 0.484516C36.6852 0.363424 37.2435 0.302641 37.8679 0.232494ZM37.899 6.37577C39.0052 6.40933 40.0174 6.5993 40.8521 5.82562C40.876 5.80332 40.8999 5.78047 40.9229 5.75714C41.7703 4.52742 41.9575 2.80628 40.5733 1.82334C39.8032 1.27597 38.7886 1.34049 37.8862 1.43174L37.899 6.37577Z" fill="var(--fill-0, #464646)"/>
<path id="Vector_6" d="M24.5787 0.236408C24.769 0.215142 24.7993 0.234186 24.9761 0.310522C25.1035 0.494381 25.1768 6.36191 25.1226 7.24764C24.8136 12.2732 30.8799 13.6219 31.8515 8.56425C32.0379 7.59298 32.0419 6.5783 32.0435 5.5303C32.0474 4.36914 32.0379 3.20806 32.0148 2.04714C31.9853 0.200462 31.9718 0.295765 33.7454 0.209191C33.6897 0.893365 33.6881 1.7068 33.6689 2.40153C33.6761 5.16187 34.0281 9.15883 32.3612 11.3679C30.5151 13.8155 25.1736 13.5782 23.9933 10.5343C22.7748 7.39095 23.6094 3.63609 23.267 0.386779C23.6962 0.315045 24.1446 0.2791 24.5787 0.236408Z" fill="var(--fill-0, #464646)"/>
<path id="Vector_7" d="M38.5606 20.0597C39.7115 19.9992 40.296 19.9231 41.1163 20.8452L41.912 20.1534C42.0227 22.337 42.0004 24.6692 41.8299 26.8454C41.7192 28.2577 39.4638 29.6868 38.8959 28.6393L38.962 28.4327C39.2161 28.2412 39.1715 28.2994 39.5386 28.27C41.0789 27.9432 41.0654 26.5188 41.1259 25.2627C40.429 26.3195 39.4327 26.7544 38.219 26.2039C36.4884 25.4189 36.2534 22.9501 36.9296 21.3966C37.2561 20.6468 37.8295 20.314 38.5606 20.0597ZM39.8214 25.6371C41.7837 24.5863 41.6563 20.4185 38.7661 20.768C36.8436 21.7782 36.9248 26.0564 39.8214 25.6371Z" fill="var(--fill-0, #464646)"/>
<path id="Vector_8" d="M24.9202 20.0575C25.9197 19.9891 26.9765 20.1177 27.5452 21.0471C28.426 22.4879 28.2771 25.2561 26.7233 26.2121C25.4777 26.9782 24.3109 26.5713 23.5631 25.404L23.5775 26.6037C23.5886 27.31 23.6316 28.2113 23.536 28.8962L23.4214 28.9553C23.1426 28.9501 23.0709 28.9644 22.8543 28.7964C22.5357 28.3281 22.7356 27.269 22.7317 26.668L22.7309 22.3114C22.7293 21.6422 22.5103 20.4794 23.0542 20.0928C23.72 20.1813 23.5456 20.7811 23.4811 21.2706C23.9876 20.53 24.1166 20.4051 24.9202 20.0575ZM25.7819 25.8194C26.3546 25.5719 26.7846 25.2321 26.9614 24.6162C27.46 22.8794 27.2211 20.5774 24.9035 20.7603C22.8909 21.7784 23.0295 26.017 25.7819 25.8194Z" fill="var(--fill-0, #464646)"/>
<path id="Vector_9" d="M18.8871 20.0541C21.6252 19.8611 22.2416 21.8289 21.9374 24.0953C21.6276 26.4068 19.0106 27.6373 17.4966 25.4287L17.507 26.7807C17.5085 27.4558 17.5221 28.1672 17.5006 28.839L17.3986 28.9206C17.1462 28.9255 16.9232 28.9504 16.6922 28.8527C16.4987 27.5923 16.7368 21.979 16.693 20.4589C16.689 20.3111 16.9025 20.1417 17.0538 20.0585C17.632 20.1916 17.4719 20.8429 17.4217 21.2796C17.8781 20.5391 18.1218 20.3664 18.8871 20.0541ZM19.8062 25.8006C19.9496 25.7241 20.2251 25.5701 20.339 25.4646C21.4779 24.4054 21.45 21.2843 19.7313 20.7819C19.4908 20.7117 19.0377 20.7419 18.7876 20.7677C16.7663 21.944 17.049 26.1524 19.8062 25.8006Z" fill="var(--fill-0, #464646)"/>
<path id="Vector_10" d="M12.4276 20.0649C15.6507 19.7547 16.7593 22.5114 15.5989 25.1568C15.2971 25.8441 14.558 26.2651 13.8436 26.4609C10.7264 26.9529 9.48881 24.1056 10.5568 21.5633C10.9088 20.7249 11.6089 20.3468 12.4276 20.0649ZM13.6612 25.7839C14.28 25.4886 14.7762 25.0766 14.9594 24.3976C15.4802 22.4737 14.8758 20.5864 12.5693 20.7692C10.1355 21.9407 10.7933 26.3226 13.6612 25.7839Z" fill="var(--fill-0, #464646)"/>
<path id="Vector_11" d="M5.32431 16.8521C5.51624 17.0816 5.4143 20.6019 5.40872 21.1501C6.86536 19.1957 9.44893 19.8429 9.4768 22.2264C9.48317 22.7267 9.56999 26.1539 9.4131 26.3755C9.16939 26.4083 9.02285 26.3812 8.78074 26.3525C8.74808 26.3198 8.70986 26.2801 8.66367 26.2335C8.63022 24.9711 8.70428 23.3202 8.63021 22.0981C8.46536 20.6638 7.17597 20.3704 6.20992 21.0537C4.99937 21.9103 5.56323 24.9878 5.392 26.305C5.18015 26.4755 4.90937 26.4541 4.6792 26.335C4.47691 26.069 4.60753 18.46 4.60832 17.5125L5.32431 16.8521Z" fill="var(--fill-0, #464646)"/>
<path id="Vector_12" d="M33.0293 20.0597C35.6877 19.8347 35.8661 21.4109 35.7905 23.5824C35.7586 24.4873 35.816 25.4319 35.7347 26.3445C35.5826 26.454 35.5077 26.4371 35.319 26.4419C34.0901 25.6459 36.4738 19.6849 32.7187 20.8815C30.824 22.2639 32.3006 25.645 31.5926 26.3672C31.3672 26.3759 31.1307 26.4031 30.918 26.3359C30.8718 26.1065 30.8965 24.7215 30.8981 24.3959L30.8822 21.0697C30.8822 20.8017 30.8288 20.3836 30.9833 20.2304C31.2007 20.1991 31.3895 20.1484 31.5934 20.2143C31.7081 20.4558 31.6515 20.9309 31.6388 21.2182C32.0863 20.4699 32.2616 20.3707 33.0293 20.0597Z" fill="var(--fill-0, #464646)"/>
<path id="Vector_13" d="M1.51053 20.0626C1.92148 20.0277 2.33482 20.0313 2.74498 20.0733C3.10177 20.1121 3.44662 20.1361 3.67041 20.4129L3.6035 20.6933C2.96796 21.2642 1.75025 20.1917 1.04304 21.1663C0.682263 21.663 1.03189 22.1441 1.48107 22.3841C2.78957 23.0834 4.87936 23.9498 3.63456 25.7778C3.29211 26.2771 2.66055 26.4331 2.072 26.5194C1.62123 26.5724 0.314318 26.5217 0.0562799 26.1147C0.274497 24.7702 1.2493 26.285 2.21137 25.7726C5.10873 24.2297 0.529348 23.5086 0.173351 22.1384C-0.13964 20.936 0.472805 20.4487 1.51053 20.0626Z" fill="var(--fill-0, #464646)"/>
<path id="Vector_14" d="M28.876 20.1889C29.1882 20.1724 29.3188 20.1751 29.6294 20.2084C29.7592 20.4336 29.7083 25.6906 29.7075 26.3997C29.3881 26.407 29.2304 26.4256 28.9286 26.3306C28.7725 25.8486 28.8848 21.0769 28.876 20.1889Z" fill="var(--fill-0, #464646)"/>
<path id="Vector_15" d="M29.1206 17.4579C29.2918 17.4878 29.3771 17.5336 29.534 17.6022C29.8661 18.0343 29.7657 18.2733 29.4065 18.6548C29.0354 18.5295 28.9629 18.463 28.8482 18.0999C28.8761 17.7984 28.9518 17.7141 29.1206 17.4579Z" fill="var(--fill-0, #464646)"/>
<path id="Vector_16" d="M79.6534 10.5466C79.6462 10.5083 79.6398 10.4698 79.6343 10.4313C79.4901 9.46641 79.3237 0.854339 79.6358 0.435836C80.0388 0.199605 80.5987 0.237535 81.0686 0.234996V0.510585C80.9531 1.16421 80.9874 3.0604 80.9874 3.80941L81.0001 9.94872C81.0049 10.787 81.0535 11.7147 80.9475 12.5438C80.9428 12.6364 80.8719 12.6979 80.7867 12.7344C79.8182 13.1481 79.4503 12.8535 78.9071 12.0788C76.7034 8.93491 74.311 6 72.3741 2.67142C72.4562 4.32924 72.6099 10.5784 72.3606 12.5892C72.3343 12.8014 71.2472 12.8284 70.888 12.8466C71.0035 11.5072 70.9573 9.77057 70.9573 8.39461L70.9549 1.15421C70.7702 0.945037 70.5567 0.63612 70.3871 0.405602C70.9963 0.292922 71.6144 0.237774 72.2332 0.240868C72.7437 0.723249 74.5101 3.14269 74.9736 3.81322C76.3825 5.84955 78.5312 8.41159 79.6534 10.5466Z" fill="var(--fill-0, #464646)"/>
</g>
</svg>
