<svg preserveAspectRatio="xMidYMid meet" overflow="visible" style="display: block;" viewBox="0 0 133.799 20.0002" fill="none" xmlns="http://www.w3.org/2000/svg">
<g id="Group 2">
<path id="Vector" d="M122.62 0.107734C124.841 0.117772 124.841 0.117772 124.84 2.24308C124.838 7.56146 124.839 12.8798 124.833 18.1982C124.832 19.7683 124.738 19.891 123.24 19.8805C119.274 19.8528 119.986 20.3615 119.931 16.6144C119.89 13.888 119.922 13.8885 117.187 13.8924C115.787 13.8944 114.387 13.9153 112.988 13.8831C112.182 13.8646 111.815 14.1655 111.838 15.001C111.871 16.1996 111.818 17.4005 111.846 18.5994C111.866 19.4942 111.53 19.9461 110.583 19.8983C109.785 19.858 108.982 19.8604 108.184 19.8943C107.25 19.9341 106.929 19.5195 106.936 18.599C106.965 15.0004 106.939 11.4013 106.933 7.80243C106.931 6.56435 106.882 5.324 106.94 4.08868C107.055 1.61988 108.615 0.128843 111.107 0.112772C114.906 0.0882749 118.705 0.107177 122.62 0.107734ZM116.99 4.74134C116.351 4.74075 115.713 4.73338 115.075 4.74069C111.5 4.7816 111.867 4.21768 111.833 8.15258C111.825 8.98222 112.171 9.28719 112.977 9.27317C114.692 9.24339 116.408 9.26568 118.123 9.26183C119.741 9.25821 119.766 9.23242 119.882 7.60304C120.085 4.75276 120.07 4.73753 116.99 4.74134Z" fill="var(--fill-0, #464646)"/>
<path id="Vector_2" d="M85.3322 5.19363C85.3295 3.79331 85.343 2.51281 85.3176 1.23306C85.3032 0.506323 85.546 0.0980441 86.3407 0.10053C90.7012 0.114175 95.0627 0.0596315 99.4218 0.140702C101.453 0.178491 102.764 1.46291 103.06 3.46697C103.187 4.33132 103.185 5.21931 103.189 6.09676C103.201 9.21716 103.221 12.3381 103.178 15.458C103.137 18.4243 101.647 19.8894 98.7091 19.902C94.7086 19.9192 90.7077 19.8781 86.7076 19.9208C85.6503 19.9321 85.3237 19.5466 85.332 18.5157C85.3676 14.1153 85.338 9.71442 85.3322 5.19363ZM98.2987 10.8381C98.2968 9.27754 98.2999 7.71691 98.2911 6.15637C98.2866 5.34479 98.0408 4.73991 97.0667 4.74477C95.1061 4.75458 93.1453 4.7539 91.1848 4.74202C90.5247 4.73803 90.2579 5.03592 90.2609 5.69008C90.274 8.57108 90.2725 11.4522 90.2602 14.3332C90.2573 14.9919 90.5396 15.2721 91.1969 15.268C93.1175 15.256 95.0383 15.2579 96.9589 15.2761C97.8696 15.2846 98.279 14.8316 98.2865 13.9585C98.2947 12.9982 98.2944 12.0378 98.2987 10.8381Z" fill="var(--fill-0, #464646)"/>
<path id="Vector_3" d="M6.65429 12.0218C4.96499 12.0479 4.96112 12.0479 4.95598 13.6446C4.95058 15.3259 4.93573 17.0076 4.96028 18.6886C4.97299 19.5594 4.59123 19.9121 3.73071 19.9001C-0.8042 19.8371 0.0897482 20.4597 0.0417308 16.4012C-0.0165163 11.4778 0.0551978 6.55283 0.00419288 1.62926C-0.00758417 0.492372 0.329409 -0.00304823 1.49922 0.104762C2.21369 0.170619 2.94067 0.144106 3.6595 0.108296C4.59726 0.0615983 4.949 0.49606 4.93077 1.40431C4.90026 2.92491 4.91879 4.44671 4.93375 5.96784C4.93799 6.39861 4.83634 6.84967 5.12701 7.33138C7.43178 7.66604 9.78008 7.49779 12.1272 7.3385C12.8059 7.29245 12.8049 6.77024 12.8067 6.27857C12.8126 4.7173 12.8528 3.15451 12.7977 1.59522C12.7601 0.530344 13.1195 0.00406363 14.2413 0.104168C14.7576 0.150243 15.2815 0.111999 15.8019 0.111596C17.8868 0.109997 17.8884 0.109939 17.8884 2.13794C17.8881 7.46235 17.8902 12.7867 17.883 18.1111C17.8806 19.8708 17.8412 19.9124 16.0453 19.9009C12.3433 19.8771 12.8522 20.3185 12.817 16.7446C12.8064 15.6637 12.7457 14.5777 12.8281 13.5033C12.9104 12.4304 12.4325 12.0618 11.4492 12.0626C9.88845 12.0637 8.32765 12.0368 6.65429 12.0218Z" fill="var(--fill-0, #464646)"/>
<path id="Vector_4" d="M63.4895 16.0035C63.4871 11.1208 63.5159 6.35753 63.4608 1.59527C63.4473 0.422671 63.864 0.0738705 64.9941 0.0868555C69.036 0.133304 73.0788 0.0859902 77.1211 0.10487C79.8052 0.117401 81.3478 1.68875 81.3535 4.39034C81.3633 9.03312 81.3565 13.6759 81.3486 18.3187C81.3461 19.7767 81.2376 19.8989 79.7726 19.8881C78.7779 19.8807 77.6336 20.2376 76.8246 19.7147C75.8727 19.0993 76.4774 17.8572 76.4079 16.9102C76.2677 14.9998 76.2568 13.0689 76.3575 11.1551C76.4501 9.39277 76.3256 7.63702 76.3878 5.87879C76.4162 5.07355 75.955 4.74272 75.1753 4.74696C73.3743 4.75676 71.5715 4.79151 69.7728 4.72619C68.7348 4.68849 68.3753 5.02935 68.3891 6.09604C68.4427 10.2178 68.3807 14.3411 68.4343 18.4629C68.4489 19.586 68.0366 19.9321 66.9624 19.9109C62.8942 19.8303 63.5701 20.3574 63.491 16.4836C63.4886 16.3636 63.4902 16.2435 63.4895 16.0035Z" fill="var(--fill-0, #464646)"/>
<path id="Vector_5" d="M58.361 18.7553C57.4719 19.6243 56.4461 19.9011 55.3335 19.9029C51.2117 19.9094 47.0897 19.8783 42.9684 19.9189C41.8963 19.9295 41.5989 19.5031 41.6048 18.4909C41.6377 12.8486 41.6445 7.20587 41.5996 1.56374C41.5908 0.457277 41.9617 0.0267024 43.0528 0.106343C43.809 0.161531 44.5746 0.147439 45.3325 0.103454C46.2729 0.0488596 46.5868 0.450099 46.5786 1.37966C46.5423 5.50116 46.5601 9.62314 46.5597 13.7449C46.5596 15.267 46.5613 15.2647 48.1019 15.2623C49.6626 15.2599 51.2233 15.2677 52.7839 15.2613C54.4462 15.2546 54.5881 15.1242 54.5903 13.4966C54.5955 9.57486 54.5873 5.65314 54.5836 1.73144C54.5821 0.172588 54.6316 0.121894 56.2018 0.11083C59.5334 0.0873602 59.5329 0.0873677 59.5306 3.38442C59.5277 7.50623 59.5121 11.6281 59.5322 15.7498C59.5378 16.8913 59.2287 17.8747 58.361 18.7553Z" fill="var(--fill-0, #464646)"/>
<path id="Vector_6" d="M25.1429 9.70453C23.39 6.92643 21.6846 4.22151 19.9882 1.51096C19.7839 1.18452 19.4143 0.86198 19.6235 0.435966C19.8389 -0.00296081 20.3173 0.123759 20.7018 0.111368C25.0312 -0.0280952 25.0235 -0.0213276 27.2515 3.68537C27.9835 4.90311 28.7669 6.08993 29.6368 7.46469C30.9906 5.89449 31.917 4.29336 32.744 2.69762C33.7687 0.720288 35.0714 -0.329853 37.3555 0.0925539C38.1616 0.241629 39.3285 -0.3037 39.7278 0.374222C40.1878 1.15517 39.1661 1.91176 38.7315 2.62239C36.8344 5.72447 34.8859 8.79582 32.9107 11.849C32.1602 13.0089 32.2585 14.2961 32.175 15.5555C32.1037 16.6306 32.1354 17.7144 32.1608 18.7934C32.1785 19.5434 31.8812 19.9122 31.1092 19.8965C30.1898 19.8778 29.2694 19.8729 28.3503 19.8955C27.5096 19.9162 27.2153 19.4822 27.2339 18.7054C27.2512 17.986 27.1499 17.2534 27.2517 16.5483C27.6258 13.9558 26.7276 11.7752 25.1429 9.70453Z" fill="var(--fill-0, #464646)"/>
<path id="Vector_7" d="M133.783 13.6025C133.783 15.3606 133.745 16.9999 133.797 18.6363C133.827 19.5858 133.438 19.9387 132.526 19.8923C131.769 19.8538 131.007 19.8486 130.25 19.889C129.313 19.939 129.014 19.5543 129.023 18.6138C129.064 13.9797 129.045 9.34496 129.037 4.71049C129.035 3.59254 129.024 2.4732 128.965 1.35721C128.92 0.488817 129.268 0.0936405 130.143 0.119823C130.942 0.143718 131.743 0.153316 132.54 0.112535C133.462 0.0653535 133.806 0.438269 133.798 1.37682C133.763 5.41172 133.783 9.44711 133.783 13.6025Z" fill="var(--fill-0, #464646)"/>
</g>
</svg>
