<svg preserveAspectRatio="xMidYMid meet" overflow="visible" style="display: block;" viewBox="0 0 103.949 34.6313" fill="none" xmlns="http://www.w3.org/2000/svg">
<g id="Group 3">
<path id="Vector" d="M21.5059 16.8242C21.4866 15.3054 21.4717 13.8258 21.444 12.3465C21.4391 12.0867 21.3973 11.8244 21.3437 11.5693C21.0751 10.2917 20.3563 9.66936 19.0458 9.65691C18.5169 9.65188 17.9855 9.77313 17.4576 9.85273C17.1376 9.901 17.1134 10.1416 17.1135 10.4139C17.1146 13.8718 17.1088 17.3296 17.1047 20.7875C17.1045 20.8923 17.1087 20.9973 17.1026 21.1018C17.0588 21.845 16.5816 22.3083 15.8357 22.3176C15.1811 22.3258 14.5263 22.3226 13.8717 22.3185C13.0404 22.3134 12.5648 21.8346 12.5595 20.996C12.5378 17.5252 12.5107 14.0543 12.5069 10.5834C12.5064 10.1419 12.3756 9.9167 11.9404 9.80005C11.227 9.60886 10.5161 9.56773 9.81032 9.76247C8.74046 10.0577 8.38853 10.9157 8.2537 11.8989C8.1899 12.3641 8.16894 12.8382 8.16653 13.3084C8.15365 15.8232 8.15265 18.338 8.14774 20.8528C8.14575 21.8706 7.70241 22.3174 6.69234 22.3179C6.15551 22.3182 5.61859 22.3238 5.08187 22.3159C4.31792 22.3046 3.8065 21.8335 3.80762 21.071C3.81215 17.9933 3.77045 14.9132 3.87484 11.8385C3.98776 8.5125 6.21148 6.3369 9.53641 6.12517C11.275 6.01445 12.9839 6.14445 14.6342 6.76785C14.7902 6.8268 15.0155 6.76937 15.1879 6.70784C17.6644 5.82409 20.1541 5.84987 22.6067 6.72579C24.366 7.35412 25.2795 8.76445 25.6009 10.5505C25.7507 11.3833 25.8228 12.2395 25.8326 13.0862C25.8629 15.7054 25.8474 18.3252 25.8475 20.9448C25.8475 21.8476 25.373 22.3153 24.4612 22.3179C23.9243 22.3195 23.3875 22.3204 22.8507 22.3177C21.984 22.3133 21.5108 21.8495 21.5077 20.9893C21.5029 19.6141 21.5061 18.2388 21.5059 16.8242Z" fill="var(--fill-0, #464646)"/>
<path id="Vector_2" d="M89.8072 21.1202C89.8067 14.5486 89.8066 8.01316 89.8067 1.47777C89.8067 0.419313 90.218 0.00902767 91.2778 0.00876796C91.8015 0.00863999 92.3252 0.00637546 92.8489 0.00985703C93.7045 0.015545 94.1559 0.461482 94.157 1.32062C94.161 4.66035 94.1595 8.00008 94.1603 11.3398C94.1605 11.9896 94.2719 12.0719 94.9314 11.9965C95.8737 11.8887 96.52 11.3665 96.9605 10.5657C97.5774 9.44388 98.1941 8.32124 98.7746 7.18048C99.1428 6.45681 99.6774 6.10082 100.496 6.14467C101.044 6.17405 101.596 6.15039 102.145 6.15969C102.341 6.163 102.539 6.17698 102.73 6.21491C103.241 6.31652 103.457 6.66175 103.315 7.16743C103.26 7.3658 103.163 7.55681 103.06 7.73704C101.894 9.7786 100.724 11.8174 99.5831 13.8068C100.842 15.9543 102.112 18.1152 103.374 20.2816C103.57 20.6185 103.756 20.9686 103.888 21.3338C104.063 21.8165 103.853 22.1474 103.351 22.2638C103.212 22.2958 103.067 22.3098 102.924 22.3112C102.256 22.3176 101.588 22.3048 100.921 22.3218C100.233 22.3394 99.7472 22.0434 99.4196 21.4483C98.6824 20.109 97.9432 18.7708 97.1961 17.437C97.024 17.1298 96.8337 16.8296 96.622 16.5485C96.1513 15.9236 95.5256 15.5984 94.7292 15.6246C94.2596 15.64 94.1815 15.7072 94.1661 16.1703C94.1627 16.2749 94.1646 16.3798 94.1642 16.4846C94.1583 17.9907 94.1548 19.4969 94.1457 21.003C94.1404 21.8715 93.7007 22.311 92.8433 22.3139C92.2541 22.316 91.6649 22.3189 91.0758 22.3127C90.3175 22.3046 89.8949 21.9151 89.8072 21.1202Z" fill="var(--fill-0, #464646)"/>
<path id="Vector_3" d="M31.0106 7.0502C33.5913 5.91409 36.1934 5.74333 38.8139 6.7535C41.4538 7.77114 42.7215 10.3491 41.9934 13.0904C41.5042 14.9324 40.385 15.8363 38.4696 15.88C36.4544 15.926 34.4383 15.9371 32.4226 15.9631C32.2812 15.9649 32.1398 15.9633 31.9975 15.9633C32.0491 17.7267 33.2935 18.9412 35.1218 19.1097C36.6472 19.2504 38.12 19.0358 39.57 18.5836C40.7825 18.2056 41.0179 18.3778 41.0189 19.6463C41.0192 19.9737 41.0213 20.3013 41.0099 20.6284C40.9863 21.3005 40.7938 21.5911 40.149 21.766C39.3941 21.9708 38.6315 22.172 37.859 22.2811C35.8143 22.5698 33.7804 22.5049 31.8245 21.7744C29.5552 20.9268 28.1932 19.2881 27.7974 16.8865C27.4665 14.879 27.4415 12.8715 27.9742 10.8903C28.4306 9.19297 29.4005 7.88239 31.0106 7.0502ZM33.4309 12.8971C34.5026 12.8946 35.5744 12.8961 36.646 12.8881C37.3308 12.8831 37.6818 12.5693 37.7809 11.8956C37.9212 10.9406 37.4487 10.0523 36.5616 9.65765C35.4309 9.1546 34.3406 9.26013 33.3369 9.97866C32.3514 10.6842 31.9196 11.6639 31.9845 12.8969C32.4669 12.8969 32.9096 12.8969 33.4309 12.8971Z" fill="var(--fill-0, #464646)"/>
<path id="Vector_4" d="M57.7866 6.40499C59.7234 6.01775 61.6144 6.03295 63.4856 6.59464C65.4645 7.18866 66.6092 8.53164 66.9306 10.5504C67.0679 11.4127 67.1263 12.2949 67.1358 13.169C67.1637 15.723 67.1495 18.2775 67.1505 20.8318C67.1509 21.8602 66.6956 22.3147 65.6685 22.316C65.1316 22.3166 64.5947 22.3174 64.0579 22.3158C63.252 22.3134 62.7701 21.836 62.7678 21.0192C62.7606 18.4387 62.7633 15.8582 62.7536 13.2777C62.7504 12.42 62.6372 11.5728 62.2237 10.809C61.6339 9.71953 60.5238 9.25319 59.0526 9.46427C58.6029 9.52878 58.1574 9.65203 57.7235 9.79065C57.1671 9.96842 57.0979 10.0915 57.0968 10.6741C57.09 14.0929 57.0849 17.5118 57.0771 20.9306C57.0754 21.6881 56.7647 22.2119 56.1399 22.2662C55.3102 22.3382 54.4658 22.3346 53.6353 22.2688C53.042 22.2218 52.7097 21.7356 52.7044 21.0963C52.6952 19.996 52.7014 18.8957 52.7014 17.7953C52.7013 14.3765 52.7009 10.9577 52.7017 7.53882C52.7019 6.61204 53.1154 6.18791 54.0317 6.17936C54.634 6.17374 55.2369 6.16442 55.8385 6.18612C56.037 6.19328 56.2978 6.2325 56.4155 6.36161C56.6658 6.6362 56.9154 6.61693 57.2165 6.52397C57.3905 6.47029 57.5747 6.44992 57.7866 6.40499Z" fill="var(--fill-0, #464646)"/>
<path id="Vector_5" d="M85.3986 18.7076C85.9202 18.5597 86.4074 18.4123 86.8976 18.2755C87.694 18.0532 88.0514 18.3029 88.0787 19.1208C88.0948 19.6045 88.0809 20.0899 88.0636 20.574C88.0431 21.1483 87.7464 21.5252 87.2026 21.7088C85.3621 22.3301 83.4745 22.4864 81.5496 22.2894C80.2879 22.1603 79.0782 21.8594 77.9832 21.1962C76.5537 20.3304 75.6748 19.0604 75.3029 17.4403C74.8088 15.288 74.8084 13.1287 75.303 10.9786C75.917 8.30936 77.7326 6.82885 80.3009 6.33119C82.4027 5.92394 84.5457 5.95767 86.6454 6.53115C87.2835 6.70543 87.9469 6.90281 88.0251 7.66863C88.0962 8.364 88.0448 9.0781 87.9832 9.77828C87.9501 10.1529 87.5635 10.3078 87.1103 10.1936C86.4013 10.0151 85.7019 9.79299 84.987 9.64464C83.8282 9.40419 82.6693 9.41898 81.5447 9.83598C80.4916 10.2265 79.7663 10.953 79.5426 12.0671C79.2777 13.3862 79.2544 14.7323 79.4947 16.0527C79.7931 17.6922 80.9143 18.7099 82.5935 18.834C83.5095 18.9017 84.4411 18.7601 85.3986 18.7076Z" fill="var(--fill-0, #464646)"/>
<path id="Vector_6" d="M44.1532 20.1979C44.0718 19.7318 43.9338 19.2963 43.9322 18.8603C43.9107 13.0188 43.9071 7.17711 43.9021 1.33547C43.9013 0.47219 44.3761 0.0040563 45.2368 0.00131684C45.7868 -0.000433379 46.3367 -0.000426262 46.8866 0.00126257C47.7675 0.00396721 48.2404 0.477255 48.2414 1.36275C48.2479 6.68048 48.252 11.9982 48.2609 17.3159C48.2614 17.6162 48.2892 17.9171 48.3185 18.2163C48.3566 18.6053 48.5682 18.8433 48.967 18.8753C49.3446 18.9056 49.724 18.9128 50.1022 18.938C50.6271 18.9729 50.8946 19.1731 50.9365 19.6912C50.9825 20.2616 50.9625 20.8405 50.9275 21.4131C50.9053 21.7768 50.6944 22.0841 50.3257 22.1566C48.8759 22.442 47.4214 22.5791 45.9915 22.0486C45.1095 21.7213 44.4981 21.1093 44.1532 20.1979Z" fill="var(--fill-0, #464646)"/>
<path id="Vector_7" d="M73.2262 14.4658C73.2263 16.6405 73.227 18.7759 73.226 20.9113C73.2256 21.8567 72.7728 22.3126 71.8368 22.314C71.2868 22.3149 70.7367 22.317 70.1867 22.3133C69.3315 22.3075 68.8578 21.8559 68.8568 21.0124C68.8515 16.5058 68.851 11.9993 68.8551 7.49269C68.8558 6.6419 69.3244 6.18163 70.1669 6.17445C70.7431 6.16955 71.3194 6.16916 71.8956 6.17512C72.7787 6.18426 73.224 6.63095 73.2249 7.50947C73.2271 9.81515 73.226 12.1208 73.2262 14.4658Z" fill="var(--fill-0, #464646)"/>
<path id="Vector_8" d="M5.82105 6.53517C4.03811 7.83196 3.16437 9.58302 3.05505 11.7618C2.29832 11.7618 1.54145 11.8171 0.797393 11.7433C0.260087 11.69 -0.0666501 11.0812 0.0115026 10.5137C0.59377 6.28624 3.90557 2.94816 8.15799 2.30263C8.95935 2.18098 9.50501 2.65096 9.50922 3.47106C9.51237 4.08382 9.50984 4.6966 9.50984 5.33859C8.16224 5.40848 6.92935 5.74198 5.82105 6.53517Z" fill="var(--fill-0, #464646)"/>
<path id="Vector_9" d="M29.0025 32.6878C28.9618 33.0174 28.9618 33.0174 28.4559 32.9941C28.4559 31.1749 28.4559 29.3538 28.4559 27.5342C28.7752 27.4378 28.9812 27.5429 29.1793 27.8141C29.8263 28.6994 30.5037 29.5624 31.2042 30.4794C31.5396 30.041 31.8533 29.6319 32.1662 29.2222C32.5234 28.7545 32.8983 28.2987 33.2299 27.8134C33.4228 27.531 33.6422 27.4414 33.9787 27.5378C33.9787 29.3414 33.9787 31.1533 33.9787 32.9865C33.7887 32.9865 33.6133 32.9865 33.413 32.9865C33.413 31.5374 33.413 30.1013 33.413 28.6651C33.3868 28.6507 33.3607 28.6364 33.3345 28.6221C32.6345 29.5448 31.9345 30.4675 31.2047 31.4293C30.4833 30.4772 29.7835 29.5536 29.0836 28.63C29.0566 28.6345 29.0296 28.6389 29.0026 28.6434C29.0026 29.979 29.0026 31.3146 29.0025 32.6878Z" fill="var(--fill-0, #464646)"/>
<path id="Vector_10" d="M55.9044 29.5166C56.0675 29.8648 56.3081 30.1858 56.3334 30.5229C56.3938 31.3287 56.3529 32.1422 56.3529 32.9807C56.1855 32.9807 56.0238 32.9807 55.8104 32.9807C55.8104 32.5854 55.8127 32.1834 55.8097 31.7814C55.8066 31.3626 55.8186 30.9424 55.7872 30.5256C55.7515 30.0527 55.4795 29.7668 55.0481 29.6842C54.6427 29.6065 54.2213 29.7892 54.0454 30.1954C53.93 30.4621 53.8777 30.7716 53.8658 31.0647C53.8398 31.703 53.8578 32.3432 53.8578 32.9954C53.6644 32.9954 53.5098 32.9954 53.2987 32.9954C53.2987 32.6403 53.3016 32.2922 53.298 31.9442C53.293 31.4601 53.3056 30.9743 53.2688 30.4925C53.2355 30.0566 52.9724 29.7863 52.5774 29.6951C52.182 29.6038 51.7569 29.749 51.5739 30.1244C51.4416 30.3956 51.3721 30.7181 51.3574 31.0217C51.3257 31.6726 51.3477 32.326 51.3477 32.9933C51.1546 32.9933 51.0009 32.9933 50.8171 32.9933C50.8171 31.7534 50.8171 30.518 50.8171 29.2576C50.9772 29.2576 51.1401 29.2576 51.3203 29.2576C51.3381 29.3548 51.3563 29.4544 51.3807 29.5881C52.1957 28.9314 52.94 29.0021 53.6226 29.7627C54.3705 29.0278 55.1193 28.9382 55.9044 29.5166Z" fill="var(--fill-0, #464646)"/>
<path id="Vector_11" d="M83.8101 32.3025C83.8101 31.2704 83.8101 30.2767 83.8101 29.2582C83.9929 29.2582 84.1553 29.2582 84.3379 29.2582C84.3553 29.3539 84.3732 29.4528 84.3969 29.5838C85.2018 28.9366 85.9449 29.0029 86.6449 29.7665C86.9666 29.3838 87.3795 29.1503 87.9134 29.1532C88.69 29.1574 89.2763 29.6026 89.3321 30.3777C89.3938 31.2338 89.3462 32.0977 89.3462 32.9835C89.1974 32.9835 89.0345 32.9835 88.8329 32.9835C88.8329 32.3568 88.8357 31.7307 88.8314 31.1047C88.8299 30.896 88.826 30.6851 88.7958 30.4792C88.7284 30.0208 88.4762 29.759 88.0555 29.6817C87.6656 29.61 87.2528 29.7827 87.0751 30.1669C86.9588 30.4183 86.8994 30.7137 86.8881 30.9924C86.8618 31.6441 86.8797 32.2976 86.8797 32.9794C86.6929 32.9794 86.5311 32.9794 86.3214 32.9794C86.3214 32.3627 86.3248 31.7387 86.3196 31.1148C86.3178 30.8931 86.3131 30.6687 86.2781 30.4507C86.2084 30.0166 85.9556 29.7628 85.5508 29.6843C85.178 29.6121 84.7593 29.7674 84.5851 30.1253C84.4586 30.3851 84.3899 30.6936 84.3769 30.984C84.3471 31.6469 84.3675 32.3121 84.3675 32.9921C84.1708 32.9921 84.0177 32.9921 83.8101 32.9921C83.8101 32.774 83.8101 32.5574 83.8101 32.3025Z" fill="var(--fill-0, #464646)"/>
<path id="Vector_12" d="M69.1207 29.4464C69.943 28.9721 70.6853 29.0769 71.4011 29.7252C71.4011 29.5333 71.4011 29.4083 71.4011 29.2583C71.5859 29.2583 71.749 29.2583 71.9376 29.2583C71.9376 31.0364 71.9376 32.8204 71.9376 34.6311C71.7747 34.6311 71.6142 34.6311 71.4147 34.6311C71.4147 33.9443 71.4147 33.2604 71.4147 32.4843C70.8553 33 70.2796 33.2121 69.6088 33.0108C69.1682 32.8786 68.8212 32.6168 68.5735 32.2224C68.0004 31.3099 68.2254 30.1151 69.1207 29.4464ZM69.5887 29.7855C69.4904 29.8485 69.3785 29.8973 69.2959 29.9766C68.8113 30.4414 68.7165 31.01 68.9019 31.6312C69.0638 32.1733 69.4891 32.5177 69.9961 32.5541C70.5088 32.5909 70.9941 32.3147 71.2313 31.8215C71.5095 31.2429 71.4629 30.6796 71.0717 30.1656C70.7197 29.703 70.267 29.5837 69.5887 29.7855Z" fill="var(--fill-0, #464646)"/>
<path id="Vector_13" d="M78.0768 32.4917C77.2815 31.5377 77.38 30.2449 78.2799 29.5443C78.8768 29.0796 79.6709 29.0226 80.3001 29.3995C80.9378 29.7814 81.2571 30.5008 81.1296 31.3127C80.1339 31.3127 79.1325 31.3127 78.0945 31.3127C78.1382 31.8508 78.4046 32.1936 78.8305 32.4191C79.3685 32.7039 79.8338 32.5856 80.669 31.9644C80.7573 32.0662 80.8492 32.1722 80.9421 32.2792C80.34 33.2434 79.0061 33.3546 78.0768 32.4917ZM80.1698 30.831C80.3114 30.831 80.453 30.831 80.5986 30.831C80.5003 30.1078 79.9723 29.6291 79.3353 29.6584C78.7017 29.6874 78.155 30.2114 78.1354 30.831C78.789 30.831 79.442 30.831 80.1698 30.831Z" fill="var(--fill-0, #464646)"/>
<path id="Vector_14" d="M58.0699 32.9503C57.5693 32.696 57.2892 32.3366 57.3635 31.7772C57.4265 31.3026 57.7556 30.9864 58.3552 30.8607C58.8513 30.7566 59.3549 30.689 59.8767 30.6017C59.8908 30.2219 59.7485 29.9462 59.4305 29.787C58.8086 29.4755 58.3288 29.7867 57.8858 30.2037C57.7678 30.0801 57.67 29.9777 57.5747 29.8779C58.0273 29.2606 58.7606 29.0092 59.443 29.226C60.1139 29.4391 60.4457 29.9458 60.4484 30.7698C60.4507 31.5011 60.4489 32.2324 60.4489 32.9856C60.2608 32.9856 60.0991 32.9856 59.9148 32.9856C59.9011 32.8629 59.8885 32.7495 59.8689 32.5734C59.3327 33.0365 58.7587 33.234 58.0699 32.9503ZM58.5973 32.5555C59.5127 32.5377 60.0421 31.9193 59.8291 31.0921C59.3962 31.1715 58.9596 31.2405 58.5283 31.3342C58.1895 31.4078 57.9031 31.5719 57.9108 31.9737C57.9182 32.361 58.1968 32.495 58.5973 32.5555Z" fill="var(--fill-0, #464646)"/>
<path id="Vector_15" d="M99.2393 29.156C100.202 29.2225 100.728 29.7785 100.731 30.7064C100.734 31.439 100.728 32.1717 100.725 32.9043C100.725 32.9274 100.706 32.9504 100.689 32.9904C100.531 32.9904 100.368 32.9904 100.193 32.9904C100.184 32.8507 100.175 32.7253 100.163 32.5494C99.6982 32.9635 99.2085 33.1878 98.6056 33.035C98.023 32.8874 97.6277 32.4654 97.624 31.9637C97.62 31.4173 97.9451 31.0217 98.5679 30.8814C99.0879 30.7642 99.6178 30.6913 100.168 30.5945C100.162 30.2092 100.008 29.9231 99.6736 29.7694C99.0778 29.4957 98.6169 29.7793 98.1586 30.2102C98.044 30.0924 97.9314 29.9765 97.8145 29.8563C98.2136 29.436 98.6392 29.156 99.2393 29.156ZM98.5789 32.4906C99.5552 32.7416 100.265 32.122 100.145 31.0911C99.7491 31.1592 99.3539 31.2258 98.9595 31.296C98.8698 31.312 98.7604 31.3149 98.6981 31.3682C98.5204 31.5203 98.2997 31.6679 98.2119 31.8682C98.0996 32.1245 98.2735 32.3391 98.5789 32.4906Z" fill="var(--fill-0, #464646)"/>
<path id="Vector_16" d="M91.7337 33.0007C90.782 32.5983 90.2908 31.8522 90.3645 30.9581C90.4338 30.117 91.0108 29.4259 91.8194 29.2153C92.5725 29.0192 93.3729 29.3064 93.8287 29.9364C94.322 30.6182 94.3433 31.5112 93.8829 32.2125C93.4509 32.8706 92.6843 33.1907 91.9187 33.0334C91.8677 33.023 91.8156 33.0174 91.7337 33.0007ZM91.7491 29.7863C91.1216 30.1363 90.8127 30.7387 90.9365 31.371C91.0625 32.0145 91.5458 32.4942 92.1317 32.5499C92.728 32.6066 93.1739 32.3572 93.4695 31.849C93.7724 31.3282 93.714 30.6644 93.346 30.191C92.9799 29.72 92.4683 29.5773 91.7491 29.7863Z" fill="var(--fill-0, #464646)"/>
<path id="Vector_17" d="M47.6669 32.4374C46.9664 33.1136 46.1772 33.2599 45.3933 32.8758C44.6729 32.5227 44.2262 31.7009 44.3215 30.904C44.4229 30.0557 45.0073 29.3758 45.8254 29.2022C46.6139 29.0349 47.2739 29.286 47.7667 29.9201C48.2612 30.5564 48.2989 31.4419 47.8882 32.1287C47.8281 32.2291 47.754 32.3211 47.6669 32.4374ZM45.6717 32.4334C45.7447 32.4617 45.8157 32.4973 45.891 32.517C46.455 32.6642 47.0367 32.4389 47.3621 31.9504C47.7121 31.425 47.6956 30.7328 47.3211 30.2235C46.9789 29.7582 46.4105 29.5514 45.8676 29.7215C45.2852 29.904 44.9567 30.3316 44.8839 30.9202C44.805 31.5582 45.0521 32.0681 45.6717 32.4334Z" fill="var(--fill-0, #464646)"/>
<path id="Vector_18" d="M76.1494 33.0081C76.0398 32.8851 75.9649 32.7623 75.8918 32.6423C75.6703 32.7585 75.4349 32.9327 75.171 33.0112C74.2588 33.2828 73.3429 32.7042 73.2473 31.7599C73.1792 31.0862 73.221 30.4014 73.2144 29.7216C73.2129 29.5686 73.2141 29.4155 73.2141 29.2482C73.4061 29.2482 73.5591 29.2482 73.7685 29.2482C73.7685 29.7801 73.7684 30.3106 73.7685 30.841C73.7686 31.0503 73.7632 31.2597 73.7709 31.4687C73.7927 32.0656 74.1679 32.5004 74.6982 32.5513C75.2824 32.6074 75.797 32.2598 75.8962 31.6661C75.9687 31.2322 75.9493 30.7821 75.9604 30.3389C75.9692 29.9875 75.9622 29.6357 75.9622 29.2589C76.1439 29.2589 76.3063 29.2589 76.5169 29.2589C76.5169 29.7486 76.5169 30.2415 76.5169 30.7343C76.5169 31.3883 76.5034 32.0426 76.5234 32.696C76.5317 32.9699 76.4268 33.0448 76.1494 33.0081Z" fill="var(--fill-0, #464646)"/>
<path id="Vector_19" d="M36.0733 31.8681C36.3894 32.4488 36.8077 32.6608 37.3314 32.5317C37.8116 32.4134 38.1713 31.951 38.1827 31.3892C38.1969 30.6853 38.1861 29.9809 38.1861 29.2555C38.3769 29.2555 38.5389 29.2555 38.7208 29.2555C38.7208 30.4966 38.7208 31.733 38.7208 32.9885C38.5444 32.9885 38.3813 32.9885 38.2031 32.9885C38.193 32.8509 38.1837 32.726 38.1709 32.5529C37.7405 32.937 37.2863 33.1645 36.7272 33.0564C35.9961 32.915 35.5055 32.4067 35.4575 31.6191C35.4099 30.8398 35.4471 30.0553 35.4471 29.2538C35.6325 29.2538 35.7944 29.2538 36.0644 29.2538C36.0644 30.1225 36.0644 30.9802 36.0733 31.8681Z" fill="var(--fill-0, #464646)"/>
<path id="Vector_20" d="M65.0354 33.0134C64.2072 33.1761 63.653 32.9941 63.1625 32.3973C63.2913 32.2934 63.4225 32.1874 63.4631 32.1546C63.88 32.2963 64.2516 32.4847 64.6415 32.5373C65.0265 32.5892 65.3287 32.3137 65.3537 32.0073C65.3833 31.6445 65.1153 31.5108 64.8398 31.4034C64.5363 31.2851 64.2224 31.193 63.9206 31.0706C63.5678 30.9276 63.3408 30.6774 63.322 30.2748C63.302 29.848 63.5101 29.5484 63.8575 29.3382C64.4317 28.9909 65.1753 29.1196 65.7827 29.6803C65.6558 29.7899 65.5299 29.8986 65.4212 29.9925C65.2033 29.8914 64.991 29.7509 64.7589 29.699C64.5823 29.6595 64.3504 29.6811 64.1988 29.7703C64.0538 29.8556 63.9078 30.059 63.8986 30.2183C63.8909 30.3509 64.0519 30.5556 64.1895 30.6219C64.552 30.7967 64.954 30.8886 65.3193 31.0587C66.0312 31.3902 66.1251 32.2689 65.5105 32.7642C65.3813 32.8683 65.2155 32.927 65.0354 33.0134Z" fill="var(--fill-0, #464646)"/>
<path id="Vector_21" d="M42.157 30.2636C42.157 30.0822 42.157 29.9404 42.157 29.7578C41.9145 29.7452 41.6999 29.7341 41.4692 29.7221C41.4692 29.5648 41.4692 29.426 41.4692 29.2871C42.1356 29.1378 42.1356 29.1378 42.2135 27.997C42.2805 27.9903 42.3527 27.98 42.4253 27.9766C42.5026 27.9729 42.5803 27.9757 42.7154 27.9757C42.7154 28.1982 42.7154 28.4013 42.7154 28.6045C42.7154 28.799 42.7154 28.9935 42.7154 29.2165C42.988 29.2165 43.2319 29.2165 43.5038 29.2165C43.5038 29.3922 43.5038 29.5403 43.5038 29.7337C43.2601 29.7337 43.0072 29.7337 42.7299 29.7337C42.7299 30.5586 42.7181 31.3413 42.736 32.1233C42.7427 32.4156 42.9419 32.5673 43.2383 32.5525C43.3916 32.5449 43.5436 32.5111 43.6961 32.4892C43.773 32.9837 43.7214 33.0524 43.2558 33.0829C42.6663 33.1214 42.2222 32.778 42.1839 32.1867C42.1433 31.5609 42.1634 30.9311 42.157 30.2636Z" fill="var(--fill-0, #464646)"/>
<path id="Vector_22" d="M96.9529 29.7099C96.1693 29.7712 95.7664 30.1891 95.7517 30.9537C95.7386 31.6298 95.7489 32.3065 95.7489 32.9958C95.5511 32.9958 95.3971 32.9958 95.2146 32.9958C95.2146 31.755 95.2146 30.5218 95.2146 29.2603C95.3717 29.2603 95.5337 29.2603 95.7185 29.2603C95.7365 29.3699 95.7564 29.4921 95.7665 29.5536C96.2035 29.3908 96.6388 29.2286 97.074 29.0664C97.121 29.1166 97.168 29.1669 97.215 29.2171C97.1386 29.3813 97.0622 29.5455 96.9529 29.7099Z" fill="var(--fill-0, #464646)"/>
<path id="Vector_23" d="M102.727 30.2355C102.652 30.5111 102.555 30.7607 102.546 31.0135C102.522 31.6636 102.538 32.3152 102.538 32.9864C102.354 32.9864 102.202 32.9864 102.018 32.9864C102.018 31.7549 102.018 30.5104 102.018 29.2498C102.171 29.2498 102.324 29.2498 102.509 29.2498C102.523 29.363 102.537 29.485 102.547 29.5669C102.975 29.4026 103.418 29.2325 103.927 29.0371C103.927 29.3331 103.927 29.4956 103.927 29.6879C103.464 29.6956 103.024 29.7808 102.727 30.2355Z" fill="var(--fill-0, #464646)"/>
<path id="Vector_24" d="M40.0417 32.8853C40.038 31.6627 40.038 30.4748 40.038 29.2596C40.2194 29.2596 40.3809 29.2596 40.5703 29.2596C40.5703 30.488 40.5703 31.721 40.5703 33.0308C40.3869 32.9921 40.2161 32.956 40.0417 32.8853Z" fill="var(--fill-0, #464646)"/>
<path id="Vector_25" d="M62.2547 29.6562C62.2547 30.7885 62.2547 31.8835 62.2547 32.9936C62.0696 32.9936 61.9159 32.9936 61.7297 32.9936C61.7297 31.7486 61.7297 30.5063 61.7297 29.2482C61.8904 29.2482 62.0434 29.2482 62.2333 29.2482C62.2405 29.372 62.2476 29.4955 62.2547 29.6562Z" fill="var(--fill-0, #464646)"/>
<path id="Vector_26" d="M61.8822 27.6389C62.199 27.6177 62.3835 27.7563 62.303 28.0434C62.2701 28.1604 62.0539 28.2598 61.9043 28.2945C61.8391 28.3096 61.6538 28.1353 61.6601 28.0582C61.6715 27.9176 61.7851 27.7853 61.8822 27.6389Z" fill="var(--fill-0, #464646)"/>
<path id="Vector_27" d="M40.1523 28.2875C39.909 28.0804 39.8764 27.8486 40.128 27.6942C40.2313 27.6307 40.4608 27.7101 40.5949 27.7891C40.6524 27.8229 40.6652 28.0795 40.6063 28.1324C40.4995 28.2283 40.3238 28.2475 40.1523 28.2875Z" fill="var(--fill-0, #464646)"/>
</g>
</svg>
