<svg xmlns="http://www.w3.org/2000/svg" viewBox="0 0 155 34" width="155" height="34"><g transform="translate(0,0)"><svg x="0" y="0" width="48.367" height="30.668" viewBox="0 0 48.3665 30.6682" overflow="visible"><path id="Vector" d="M15.9379 19.49C13.0018 18.8007 9.15777 20.0748 6.05939 21.496C2.95715 22.9288 0.588935 24.532 0.588935 24.532C0.577345 24.5358 0.558029 24.5474 0.546439 24.5668C0.534849 24.5784 0.519395 24.6055 0.523258 24.6365C0.530986 24.6752 0.565755 24.6946 0.592799 24.6985C0.615978 24.6985 0.639158 24.6985 0.658475 24.6869C0.670065 24.6869 9.57887 20.4852 14.0371 21.6354C18.8895 22.8862 18.4568 30.5614 18.4568 30.5807C18.4568 30.6659 18.5418 30.6737 18.5765 30.6659C18.6345 30.6543 18.6577 30.6078 18.6692 30.5846C18.6692 30.5846 19.6544 28.2069 19.8128 25.6356C19.9673 23.0682 19.2951 20.2723 15.934 19.4823L15.9379 19.49ZM47.6055 13.1276C47.6055 13.1276 47.5707 13.116 47.5591 13.116C47.5591 13.116 44.6964 12.7287 41.0687 12.8952C37.445 13.0656 33.0369 13.7937 29.9578 16.0435C26.6818 18.4406 26.2491 21.5502 26.6354 24.0556C27.0179 26.5572 28.2232 28.4625 28.2232 28.4664C28.2464 28.5012 28.2812 28.5322 28.3391 28.5206C28.3816 28.509 28.4396 28.4741 28.4318 28.4044C28.4318 28.4044 27.2381 20.9306 32.1908 17.244C36.8925 13.7433 47.5437 13.2941 47.5475 13.2941C47.5823 13.2941 47.648 13.2709 47.6518 13.2089C47.6518 13.1586 47.6171 13.1353 47.6055 13.1276ZM13.0636 13.0463C14.3114 10.9242 13.1872 9.63078 11.7694 8.8834C11.0701 8.51551 10.2859 8.27155 9.68318 8.12827C9.0805 7.97724 8.65167 7.92303 8.65167 7.92303C8.62849 7.92303 8.60145 7.92303 8.57054 7.94239C8.501 7.98886 8.52418 8.05082 8.56668 8.07405C8.58986 8.08567 12.5034 10.0529 10.5872 13.1508C8.46237 16.5818 0.0712509 20.1561 0.0635247 20.16C0.0403444 20.1716 -0.00987848 20.2026 0.00171171 20.2645C0.0133019 20.3187 0.0635247 20.3226 0.0751149 20.3226C0.0944312 20.3226 0.109885 20.3226 0.117611 20.3226C0.117611 20.3226 2.65581 19.6914 5.54557 18.4716C8.4276 17.2479 11.6728 15.4317 13.0713 13.054L13.0636 13.0463ZM48.324 8.0392C48.324 8.0392 48.2854 8.02758 48.2622 8.02758C48.2429 8.02758 38.1674 9.04217 35.4824 6.67223C33.1296 4.60047 37.19 0.267199 37.217 0.232347C37.2595 0.185877 37.2286 0.116174 37.1591 0.108429C37.1243 0.108429 37.0895 0.127791 37.0779 0.131663C37.0779 0.131663 35.2622 1.33599 33.825 2.90434C32.3995 4.46106 31.2868 6.43213 32.8283 7.90754C34.5745 9.58431 38.4533 9.64239 41.8607 9.29775C45.2836 8.94923 48.2738 8.19023 48.2738 8.19023C48.2854 8.19023 48.3009 8.18635 48.3202 8.17474C48.3356 8.16312 48.3588 8.14376 48.3665 8.10891C48.3665 8.06244 48.3356 8.0392 48.3202 8.02758L48.324 8.0392ZM31.3448 0.104556C31.3602 0.0619592 31.3448 0 31.2752 0C31.2443 0 31.2057 0.0116174 31.1825 0.034852C31.1825 0.034852 30.236 1.08429 28.6636 2.29636C27.0951 3.51231 24.9046 4.90252 22.4089 5.5802C19.9789 6.24626 17.8077 6.07587 16.2354 5.74671C14.6707 5.41755 13.7088 4.92575 13.7088 4.92575C13.6663 4.91026 13.6276 4.92575 13.6083 4.93737C13.5697 4.96061 13.5581 5.00707 13.5813 5.04193C13.5929 5.05742 15.8336 8.76335 22.5094 6.96266C29.3281 5.12712 31.3448 0.108429 31.3448 0.104556Z" fill="var(--fill-0, #464646)"/></svg></g><g transform="translate(38.3,21.4)"><svg x="0" y="0" width="6.993" height="9.286" viewBox="0 0 6.9926 9.28613" overflow="visible"><path id="Vector" d="M0 9.28613L1.71917 0H3.83627C4.42736 0 4.88709 0.0464689 5.21161 0.131663C5.82974 0.294306 6.29334 0.607974 6.59854 1.07654C6.86511 1.48702 6.9926 1.95559 6.9926 2.49386C6.9926 3.12119 6.81102 3.69819 6.4556 4.21322C6.10404 4.71277 5.57476 5.10001 4.86778 5.37108C4.3076 5.59181 3.73196 5.70024 3.1486 5.70024H2.92839L3.12542 4.61983C3.68174 4.61983 4.1492 4.48429 4.51621 4.20161C5.01844 3.83372 5.26956 3.29545 5.26956 2.59841C5.26956 2.0098 5.07253 1.59932 4.67847 1.35536C4.44667 1.2082 4.07966 1.13463 3.58129 1.13463H3.18723L1.66895 9.27838H0V9.28613Z" fill="var(--fill-0, #464646)"/></svg></g><g transform="translate(45.13,23.89)"><svg x="0" y="0" width="6.487" height="6.951" viewBox="0 0 6.4865 6.95104" overflow="visible"><path id="Vector" d="M3.78991 0C4.55098 0 5.17684 0.267199 5.67907 0.793852C6.21994 1.35536 6.4865 2.08725 6.4865 2.9934C6.4865 3.63236 6.34742 4.25195 6.06154 4.8483C5.73702 5.53373 5.26183 6.06425 4.6437 6.43988C4.09125 6.78453 3.50016 6.95104 2.86272 6.95104C2.06687 6.95104 1.41397 6.69546 0.892426 6.18817C0.301339 5.60343 0 4.84443 0 3.91117C0 3.21026 0.185439 2.54033 0.556317 1.8975C0.931059 1.24305 1.44102 0.747382 2.09005 0.410479C2.61933 0.139408 3.18723 0 3.79764 0H3.78991ZM3.61606 0.952622C3.09452 0.952622 2.6541 1.23918 2.28322 1.80069C1.86984 2.42415 1.66895 3.17153 1.66895 4.02735C1.66895 4.57336 1.76167 5.03031 1.94711 5.39819C2.14414 5.80093 2.48025 6.00229 2.94771 6.00229C3.46926 6.00229 3.90581 5.71961 4.25351 5.14648C4.63211 4.53076 4.81755 3.74853 4.81755 2.80752C4.81755 1.57221 4.41577 0.960367 3.61606 0.960367V0.952622Z" fill="var(--fill-0, #464646)"/></svg></g><g transform="translate(52.21,23.88)"><svg x="0" y="0" width="5.285" height="6.808" viewBox="0 0 5.28501 6.80776" overflow="visible"><path id="Vector" d="M0 6.80389L1.23626 0.162643H2.8009L2.56524 1.42893L3.0752 0.782234C3.2645 0.534398 3.42676 0.352392 3.56198 0.251709C3.7706 0.0813214 3.99467 0 4.25737 0C4.51621 0 4.76347 0.0813216 4.98368 0.240092C5.05708 0.290433 5.15752 0.383372 5.28501 0.511163L4.51235 1.70388C4.26123 1.61094 4.04875 1.56447 3.87877 1.56447C2.99407 1.56447 2.39525 2.38156 2.09005 4.0196L1.56851 6.80776H0V6.80389Z" fill="var(--fill-0, #464646)"/></svg></g><g transform="translate(57.82,22.05)"><svg x="0" y="0" width="4.122" height="8.79" viewBox="0 0 4.12216 8.79046" overflow="visible"><path id="Vector" d="M0 2.88885L0.162259 1.99818H0.996735L1.29035 0.387245L2.90908 0L2.5382 1.99818H4.12216L3.9599 2.88885H2.36821L1.76553 6.11072C1.66895 6.61414 1.62259 6.95104 1.62259 7.10594C1.62259 7.53578 1.82348 7.74489 2.23686 7.74489C2.46093 7.74489 2.75841 7.68681 3.12156 7.57063L3.21814 8.42257C2.64251 8.67041 2.08619 8.79046 1.54533 8.79046C0.525411 8.79046 0.0154533 8.35287 0.0154533 7.4777C0.0154533 7.2802 0.0811299 6.86585 0.208619 6.2269L0.822886 2.88885H0Z" fill="var(--fill-0, #464646)"/></svg></g><g transform="translate(61.57,23.89)"><svg x="0" y="0" width="6.487" height="6.951" viewBox="0 0 6.4865 6.95104" overflow="visible"><path id="Vector" d="M3.79377 0C4.55098 0 5.17684 0.267199 5.68294 0.793852C6.21994 1.35536 6.4865 2.08725 6.4865 2.9934C6.4865 3.63236 6.34743 4.25195 6.0654 4.8483C5.74088 5.53373 5.2657 6.06425 4.6437 6.43988C4.09511 6.78453 3.50016 6.95104 2.86272 6.95104C2.07074 6.95104 1.41397 6.69546 0.892426 6.18817C0.297476 5.60343 0 4.84443 0 3.91117C0 3.21026 0.185439 2.54033 0.556317 1.8975C0.927195 1.24305 1.44488 0.747382 2.09392 0.410479C2.61933 0.139408 3.18723 0 3.79764 0H3.79377ZM3.61993 0.952622C3.09451 0.952622 2.6541 1.23918 2.28322 1.80069C1.87371 2.42415 1.66895 3.17153 1.66895 4.02735C1.66895 4.57336 1.76167 5.03031 1.94711 5.39819C2.14414 5.80093 2.48025 6.00229 2.95157 6.00229C3.47312 6.00229 3.90967 5.71961 4.26124 5.14648C4.63211 4.53076 4.82528 3.74853 4.82528 2.80752C4.82528 1.57221 4.42349 0.960367 3.62379 0.960367L3.61993 0.952622Z" fill="var(--fill-0, #464646)"/></svg></g><g transform="translate(70.92,21.41)"><svg x="0" y="0" width="7.758" height="9.282" viewBox="0 0 7.75754 9.28226" overflow="visible"><path id="Vector" d="M2.87817 6.73419L1.52601 9.28226H0L5.1498 0H6.37833L7.75754 9.28226H6.04995L5.74861 6.73419H2.87817ZM5.63658 5.59569C5.46659 4.34489 5.35069 3.14056 5.28888 1.97108C4.60507 3.37677 3.9908 4.58885 3.45767 5.59569H5.6443H5.63658Z" fill="var(--fill-0, #464646)"/></svg></g><g transform="translate(79.36,20.93)"><svg x="0" y="0" width="3.373" height="9.755" viewBox="0 0 3.37267 9.75469" overflow="visible"><path id="Vector" d="M0 9.7547L1.80803 0H3.37267L1.56464 9.7547H0Z" fill="var(--fill-0, #464646)"/></svg></g><g transform="translate(82.7,23.89)"><svg x="0" y="0" width="6.17" height="6.951" viewBox="0 0 6.16971 6.95104" overflow="visible"><path id="Vector" d="M1.66509 3.94215C1.66509 4.05832 1.65736 4.15126 1.65736 4.21322C1.65736 5.30913 2.15187 5.85127 3.13315 5.85127C3.59675 5.85127 4.18783 5.67314 4.90641 5.313L5.32365 6.12621C4.83687 6.38567 4.41963 6.57154 4.08352 6.68772C3.54266 6.86198 2.99793 6.95104 2.4532 6.95104C1.69986 6.95104 1.12036 6.74968 0.718576 6.34694C0.239525 5.86289 0 5.2278 0 4.43395C0 3.73304 0.181576 3.04762 0.533137 2.37381C0.973555 1.54123 1.58782 0.910024 2.37594 0.480183C2.96316 0.162642 3.58516 0 4.23806 0C4.81755 0 5.28888 0.147154 5.63658 0.433714C5.99586 0.724148 6.16971 1.10752 6.16971 1.57996C6.16971 2.13759 5.9186 2.60616 5.42796 2.9934C4.89482 3.41163 4.18011 3.69431 3.28382 3.84534C2.83567 3.91892 2.40685 3.95377 1.99347 3.95377C1.92393 3.95377 1.81576 3.95377 1.66509 3.9499V3.94215ZM1.80803 3.05149L2.27163 3.06311C3.06747 3.06311 3.69333 2.91208 4.14147 2.61777C4.53939 2.35057 4.74415 2.04465 4.74415 1.68451C4.74415 1.4754 4.66688 1.29727 4.52394 1.15399C4.38486 1.01458 4.19942 0.944877 3.96762 0.944877C3.47312 0.944877 3.01338 1.16561 2.58842 1.61094C2.25231 1.96333 1.98961 2.44351 1.80803 3.05149Z" fill="var(--fill-0, #464646)"/></svg></g><g transform="translate(96.41,23.88)"><svg x="0" y="0" width="5.281" height="6.808" viewBox="0 0 5.28115 6.80776" overflow="visible"><path id="Vector" d="M0 6.80389L1.2324 0.162643H2.8009L2.56138 1.42893L3.07133 0.782234C3.2645 0.534398 3.43062 0.352392 3.55811 0.251709C3.76673 0.0813214 3.99853 0 4.25351 0C4.50849 0 4.7596 0.0813216 4.97981 0.240092C5.05321 0.290433 5.15366 0.383372 5.28115 0.511163L4.50849 1.70388C4.26124 1.61094 4.04489 1.56447 3.87877 1.56447C2.99021 1.56447 2.39525 2.38156 2.09392 4.0196L1.57237 6.80776H0.00386331L0 6.80389Z" fill="var(--fill-0, #464646)"/></svg></g><g transform="translate(101.04,23.89)"><svg x="0" y="0" width="6.166" height="6.951" viewBox="0 0 6.16585 6.95104" overflow="visible"><path id="Vector" d="M1.66122 3.94215C1.66122 4.05832 1.65736 4.15126 1.65736 4.21322C1.65736 5.30913 2.148 5.85127 3.12928 5.85127C3.59288 5.85127 4.18397 5.67314 4.90255 5.313L5.31978 6.12621C4.83301 6.38567 4.41577 6.57154 4.07966 6.68772C3.5388 6.86198 2.99407 6.95104 2.44934 6.95104C1.69599 6.95104 1.1165 6.74968 0.718576 6.34694C0.235662 5.86289 0 5.2278 0 4.43395C0 3.73304 0.177712 3.04762 0.529274 2.37381C0.973555 1.54123 1.58782 0.910024 2.37594 0.480183C2.9593 0.162642 3.58129 0 4.23419 0C4.81369 0 5.28501 0.147154 5.63271 0.433714C5.98814 0.724148 6.16585 1.10752 6.16585 1.57996C6.16585 2.13759 5.9186 2.60616 5.42409 2.9934C4.89095 3.41163 4.17624 3.69431 3.27995 3.84534C2.83181 3.91892 2.40298 3.95377 1.99347 3.95377C1.92393 3.95377 1.81189 3.95377 1.66122 3.9499V3.94215ZM1.80803 3.05149L2.27163 3.06311C3.06361 3.06311 3.68947 2.91208 4.13761 2.61777C4.53553 2.35057 4.74029 2.04465 4.74029 1.68451C4.74029 1.4754 4.66688 1.29727 4.52008 1.15399C4.381 1.01458 4.19556 0.944877 3.96376 0.944877C3.46926 0.944877 3.01339 1.16561 2.58456 1.61094C2.24845 1.96333 1.98574 2.44351 1.80803 3.05149Z" fill="var(--fill-0, #464646)"/></svg></g><g transform="translate(109.7,21.41)"><svg x="0" y="0" width="7.758" height="9.282" viewBox="0 0 7.75754 9.28226" overflow="visible"><path id="Vector" d="M2.87431 6.73419L1.52215 9.28226H0L5.14593 0H6.37447L7.75754 9.28226H6.04609L5.74475 6.73419H2.87431ZM5.63271 5.59569C5.46659 4.34489 5.35069 3.14056 5.28501 1.97108C4.60121 3.37677 3.98694 4.58885 3.4538 5.59569H5.64044H5.63271Z" fill="var(--fill-0, #464646)"/></svg></g><g transform="translate(118.13,21.05)"><svg x="0" y="0" width="3.292" height="9.639" viewBox="0 0 3.29154 9.63852" overflow="visible"><path id="Vector" d="M0 9.63852L1.2324 2.99727H2.79704L1.56464 9.63852H0ZM2.48411 0C2.73523 0 2.94384 0.092939 3.1061 0.282689C3.22587 0.433714 3.29154 0.619592 3.29154 0.840321C3.29154 1.15786 3.17951 1.42506 2.9593 1.64966C2.75841 1.85878 2.51502 1.96333 2.22913 1.96333C1.98574 1.96333 1.78485 1.87426 1.63805 1.70775C1.50669 1.55672 1.44102 1.35923 1.44102 1.12301C1.44102 0.797724 1.56464 0.518908 1.81189 0.282689C2.00506 0.0968112 2.22913 0.00387245 2.49184 0.00387245L2.48411 0Z" fill="var(--fill-0, #464646)"/></svg></g><g transform="translate(121.36,23.88)"><svg x="0" y="0" width="5.281" height="6.808" viewBox="0 0 5.28115 6.80776" overflow="visible"><path id="Vector" d="M0 6.80389L1.23626 0.162643H2.8009L2.56138 1.42893L3.07133 0.782234C3.2645 0.534398 3.43062 0.352392 3.55811 0.251709C3.76673 0.0813214 4.00239 0 4.25351 0C4.51235 0 4.7596 0.0813216 4.97981 0.240092C5.05708 0.290433 5.15366 0.383372 5.28115 0.511163L4.51235 1.70388C4.26124 1.61094 4.04489 1.56447 3.87877 1.56447C2.99021 1.56447 2.39525 2.38156 2.09392 4.0196L1.57237 6.80776H0.00772663L0 6.80389Z" fill="var(--fill-0, #464646)"/></svg></g><g transform="translate(133.81,23.89)"><svg x="0" y="0" width="6.487" height="6.951" viewBox="0 0 6.4865 6.95104" overflow="visible"><path id="Vector" d="M3.78991 0C4.55098 0 5.17684 0.267199 5.68294 0.793852C6.21994 1.35536 6.4865 2.08725 6.4865 2.9934C6.4865 3.63236 6.34742 4.25195 6.0654 4.8483C5.74088 5.53373 5.2657 6.06425 4.6437 6.43988C4.09511 6.78453 3.50016 6.95104 2.86272 6.95104C2.07074 6.95104 1.41397 6.69546 0.892426 6.18817C0.301339 5.60343 0 4.84443 0 3.91117C0 3.21026 0.185439 2.54033 0.556317 1.8975C0.927195 1.24305 1.44488 0.747382 2.09392 0.410479C2.61933 0.139408 3.18723 0 3.79764 0H3.78991ZM3.62379 0.952622C3.10224 0.952622 2.66182 1.23918 2.29095 1.80069C1.87757 2.42415 1.67668 3.17153 1.67668 4.02735C1.67668 4.57336 1.7694 5.03031 1.95484 5.39819C2.15187 5.80093 2.48797 6.00229 2.95544 6.00229C3.47698 6.00229 3.91354 5.71961 4.26896 5.14648C4.63984 4.53076 4.82914 3.74853 4.82914 2.80752C4.82914 1.57221 4.43122 0.960367 3.62765 0.960367L3.62379 0.952622Z" fill="var(--fill-0, #464646)"/></svg></g><g transform="translate(140.89,23.88)"><svg x="0" y="0" width="5.281" height="6.808" viewBox="0 0 5.28115 6.80776" overflow="visible"><path id="Vector" d="M0 6.80389L1.23626 0.162643H2.8009L2.56138 1.42893L3.07133 0.782234C3.2645 0.534398 3.42676 0.352392 3.55811 0.251709C3.76673 0.0813214 3.99467 0 4.25351 0C4.51621 0 4.7596 0.0813216 4.97981 0.240092C5.05322 0.290433 5.15366 0.383372 5.28115 0.511163L4.50849 1.70388C4.26124 1.61094 4.04489 1.56447 3.87877 1.56447C2.99021 1.56447 2.39525 2.38156 2.08619 4.0196L1.56464 6.80776H0V6.80389Z" fill="var(--fill-0, #464646)"/></svg></g><g transform="translate(146.49,22.05)"><svg x="0" y="0" width="4.122" height="8.79" viewBox="0 0 4.12216 8.79046" overflow="visible"><path id="Vector" d="M0.00386331 2.88885L0.166123 1.99818H0.996735L1.29035 0.387245L2.90908 0L2.5382 1.99818H4.12216L3.95603 2.88885H2.36821L1.76553 6.11072C1.66895 6.61414 1.62259 6.95104 1.62259 7.10594C1.62259 7.53578 1.82348 7.74489 2.23686 7.74489C2.46093 7.74489 2.75068 7.68681 3.11769 7.57063L3.21041 8.42257C2.63478 8.67041 2.07846 8.79046 1.54146 8.79046C0.521547 8.79046 0.0115899 8.35287 0.0115899 7.4777C0.0115899 7.2802 0.0734022 6.86585 0.200892 6.2269L0.815159 2.88885H0H0.00386331Z" fill="var(--fill-0, #464646)"/></svg></g></svg>