<svg preserveAspectRatio="xMidYMid meet" overflow="visible" style="display: block;" viewBox="0 0 159.924 19.9785" fill="none" xmlns="http://www.w3.org/2000/svg">
<g id="Group 1">
<path id="Vector" d="M159.924 0.00378442V3.64695H152.335V19.6756H147.217V3.64695H139.63V0.00378442H159.924Z" fill="var(--fill-0, #464646)"/>
<path id="Vector_2" d="M141.815 16.0287V19.6756H125.552V0.00378442H130.668V16.0287H141.815Z" fill="var(--fill-0, #464646)"/>
<path id="Vector_3" d="M43.3092 16.0287V19.6756H26.2239V0.00378442H42.9876V3.64821H31.3432V7.97102H41.9825V11.4973H31.3432V16.0287H43.3092Z" fill="var(--fill-0, #464646)"/>
<path id="Vector_4" d="M14.4698 9.17577C14.0766 9.56019 13.6105 9.74612 12.8844 9.74612H5.90455V3.74997H11.4183C13.059 3.74997 13.9359 3.93589 14.5263 4.41579C15.1042 4.87935 15.3844 5.58537 15.3844 6.62681C15.3844 7.70469 15.0979 8.569 14.4698 9.17577ZM17.0577 12.3692C19.2487 11.1808 20.6017 8.84035 20.6017 6.38687C20.6017 4.34167 20.0049 2.75375 18.755 1.70979C17.3002 0.505036 15.3065 0.00378442 11.9422 0.00378442H0.208617L7.62939e-05 1.19095C7.62939e-05 1.19095 0.208617 1.54397 0.451078 1.9711C0.815397 2.59546 0.785246 2.78138 0.785246 3.19846V19.6756H5.90455V13.3767H12.2638L15.6746 19.6756H21.309L17.0577 12.3692Z" fill="var(--fill-0, #464646)"/>
<path id="Vector_5" d="M64.7334 2.28882e-05V13.0501C63.5399 11.5463 62.2862 10.0979 60.1693 7.77127C58.4457 5.87808 54.8528 1.99748 53.0086 0.00378961H48.0689L47.8617 1.19096C47.8617 1.19096 48.074 1.54397 48.3139 1.9711C48.5878 2.43718 48.6443 2.65954 48.6518 2.91204L48.6493 19.6756L53.2473 19.6606V6.62933C54.1644 7.85544 55.7988 9.73356 56.8892 10.9157C59.0588 13.2624 62.3364 16.9219 64.8904 19.6756H69.3087V0.00378961L64.7334 2.28882e-05Z" fill="var(--fill-0, #464646)"/>
<path id="Vector_6" d="M114.835 0.00378442V12.0338C114.835 13.3742 114.567 14.1732 113.913 14.785C113.083 15.5551 111.715 15.9244 109.741 15.9244C107.736 15.9244 106.332 15.5551 105.508 14.785C104.856 14.1732 104.586 13.3717 104.586 12.0338V0.00378442H98.8901L98.6829 1.1897C98.6829 1.1897 98.8952 1.54397 99.1326 1.9711C99.3926 2.42084 99.4529 2.64068 99.4655 2.88565L99.4705 12.2184C99.4705 17.3616 102.953 19.9784 109.671 19.9784H109.815C116.541 19.9784 119.84 17.4319 119.84 12.2184V0.00378442H114.835Z" fill="var(--fill-0, #464646)"/>
<path id="Vector_7" d="M81.1002 12.5601C82.4469 9.20969 83.7949 6.04013 84.8816 3.58162C85.9695 6.04013 87.3225 9.20969 88.6667 12.5601H81.1002ZM88.08 0.00378442H81.6869C79.7472 4.01001 76.3741 11.3981 73.2158 19.6769H78.3527C78.7598 18.5563 79.1944 17.4143 79.6329 16.2699H90.1328C90.5763 17.4143 91.0072 18.5563 91.4154 19.6769H96.5536C93.3916 11.3981 90.0185 4.01001 88.08 0.00378442Z" fill="var(--fill-0, #464646)"/>
</g>
</svg>
