<svg preserveAspectRatio="xMidYMid meet" overflow="visible" style="display: block;" viewBox="0 0 133 24" fill="none" xmlns="http://www.w3.org/2000/svg">
<g id="lojas-renner-seeklogo 2" clip-path="url(#clip0_59_128)">
<path id="Vector" d="M121.793 3.77843H125.091C127.432 3.77843 129.134 5.2828 129.134 7.34694C129.134 9.41108 127.219 11.0554 124.523 11.0554H121.793V3.77843ZM34.3317 3.77843H37.6301C39.9709 3.77843 41.6733 5.2828 41.6733 7.34694C41.6733 9.41108 39.7936 11.0554 37.0627 11.0554H34.3317V3.77843ZM118.991 2.48397V21.586H121.793V12.3848H123.991L129.914 21.586H133L126.9 12.3499C130.127 11.8251 131.971 10.0408 131.971 7.27697C131.971 4.51312 129.489 2.51895 126.013 2.51895H118.92L118.991 2.48397ZM31.5299 2.48397V21.586H34.3317V12.3848H36.5307L42.4891 21.586H45.5747L39.4744 12.3499C42.7019 11.8251 44.5461 10.0408 44.5461 7.27697C44.5461 4.51312 42.0635 2.51895 38.5877 2.51895H31.4944L31.5299 2.48397ZM104.13 2.44898V21.551H114.593V20.2566H106.932V12.3848H113.777V11.0904H106.932V3.77843H114.345V2.44898H104.13ZM84.3752 2.44898V21.551H85.9712V7.38192L97.4979 21.551H98.7392V2.44898H97.1077V16.6181L85.6165 2.44898H84.3752ZM64.4784 2.44898V21.551H66.0744V7.38192L77.5656 21.551H78.8069V2.44898H77.2109V16.6181L65.6843 2.44898H64.4784ZM49.4051 2.44898V21.551H59.8677V20.2566H52.2069V12.3848H59.052V11.0904H52.2069V3.77843H59.6195V2.44898H49.4051ZM12.1651 0C5.46187 0 0 5.38775 0 12C0 18.6122 5.46187 24 12.1651 24C18.8683 24 24.3301 18.6122 24.3301 12C24.3301 5.38775 18.9037 0 12.1651 0Z" fill="var(--fill-0, #464646)"/>
<path id="Vector_2" d="M15.6408 5.28278C15.1442 5.59765 13.8674 6.57724 12.5197 8.71136C12.7325 8.04663 13.229 6.1924 12.8034 5.2478C12.5197 4.65305 11.7394 4.30319 10.2498 4.54809C9.25678 4.72302 6.80958 5.94751 5.07171 8.43147C4.92985 8.64138 4.96531 8.88628 5.07171 9.06121C5.14265 9.20115 5.35545 9.41106 5.56825 9.20115C5.56825 9.20115 6.38398 8.3615 6.88051 7.90669C7.51891 7.34692 7.80265 7.27695 7.90905 7.27695C8.22825 7.27695 8.29918 7.55684 8.19278 7.97666C8.01545 8.50144 4.36238 18.2624 4.22051 18.6822C4.22051 18.6822 4.11411 18.8921 4.29145 19.102C4.36238 19.172 4.43331 19.207 4.61065 19.207H8.37011C8.65385 19.207 8.72478 18.9971 8.72478 18.9971C9.85971 16.1982 10.8528 14.0291 11.7394 12.3149C12.2714 11.3003 13.5128 9.16617 15.0024 7.52185C15.428 7.13701 16.0309 7.06704 16.2437 7.41689C16.3501 8.25654 16.8821 9.27112 17.9106 9.37608C18.7973 9.48103 19.9677 8.8513 20.4288 7.34692C20.9962 5.45771 19.1874 3.00873 15.7117 5.28278" fill="var(--fill-0, white)"/>
</g>
<defs>
<clipPath id="clip0_59_128">
<rect width="133" height="24" fill="white"/>
</clipPath>
</defs>
</svg>
