<svg preserveAspectRatio="xMidYMid meet" overflow="visible" style="display: block;" viewBox="0 0 155 27.1227" fill="none" xmlns="http://www.w3.org/2000/svg">
<path id="Vector" d="M20.5139 12.5357C20.2864 11.3957 20.0589 10.4838 19.6027 9.57256L15.0439 1.82313C14.8157 1.36687 14.5882 0.683123 14.3601 0V0.455626C13.2207 2.27939 13.2207 4.55879 14.3601 6.60942L17.7795 12.7632C18.9183 14.5876 18.9183 17.0939 17.7795 18.9176L17.5514 19.3733C17.5514 18.6895 17.3233 18.0057 16.8676 17.322L13.677 11.6238L11.6251 8.20442C11.1688 7.52067 10.9407 6.83692 10.9407 6.15379L10.7132 6.60942C9.5732 8.43319 9.5732 10.7126 10.7132 12.7632L14.3601 18.9176C15.272 20.9689 15.272 23.2483 14.3601 25.0714L14.132 25.5277C13.9045 24.8439 13.677 24.1602 13.4482 23.7039L8.88945 15.9545C8.20569 14.8145 7.97819 13.6751 7.97819 12.5357C3.19065 13.6751 0 16.4101 0 19.3733C0 23.7039 6.38192 27.1227 14.3601 27.1227C22.1102 27.1227 28.4921 23.7039 28.4921 19.3733C28.4921 16.4101 25.3015 13.6751 20.5139 12.5357ZM33.9628 25.7552C33.9628 24.6158 34.1903 23.932 34.419 23.0202C36.0147 23.7039 37.8378 23.932 39.4334 23.932C41.9403 23.932 43.3085 23.2483 43.3085 21.6527C43.3085 20.057 42.1691 19.3733 39.6609 18.2339L38.2941 17.7783C35.7859 16.6382 34.1903 15.2701 34.1903 12.3082C34.1903 9.34507 36.2422 7.29381 40.5735 7.29381C42.3966 7.29381 43.9922 7.52067 45.3597 7.97693C45.3597 9.11631 45.1316 10.0288 44.9041 10.7126C43.536 10.2563 41.7128 10.0288 40.5735 10.0288C38.2941 10.0288 37.154 10.9401 37.154 12.3082C37.154 13.6751 38.0653 14.5876 40.1172 15.2701L41.4847 15.9545C44.9041 17.322 46.2716 18.9176 46.2716 21.4245C46.2716 24.6158 43.9922 26.6671 39.4334 26.6671C37.1541 26.6671 35.3309 26.4389 33.9628 25.7552ZM60.6317 12.9907V26.2114H57.8967V24.6158C56.9848 25.7552 55.8448 26.6671 54.0217 26.6671C50.6029 26.6671 48.0948 23.932 48.0948 19.6014C48.0948 14.8145 50.6029 12.0795 55.6167 12.0795C57.6686 12.0795 59.2642 12.3082 60.6317 12.9907ZM57.6686 23.2483V14.8145C57.2123 14.8145 56.5286 14.5876 55.6167 14.5876C52.6535 14.5876 51.0579 16.6382 51.0579 19.6014C51.0579 22.3364 52.1986 24.1602 54.9329 24.1602C56.073 24.1602 56.9848 23.932 57.6686 23.2483ZM75.9031 17.322V26.2114H72.9406V17.7783C72.9406 15.7264 72.2568 14.5876 69.2931 14.5876C68.6093 14.5876 67.6981 14.8145 66.7862 14.8145V26.2114H63.823V12.9907C65.8737 12.5357 67.9255 12.0795 69.2931 12.0795C74.3075 12.0795 75.9031 14.1307 75.9031 17.322ZM83.8794 24.1602C84.7945 24.1602 85.7025 23.932 86.3876 23.7039C86.1639 24.3877 86.1639 25.2996 85.9332 26.2114C85.2488 26.4389 84.3407 26.6671 83.425 26.6671C80.6862 26.6671 78.8631 25.2996 78.8631 22.1083V7.97693C79.7794 7.74943 80.6862 7.52067 81.6019 7.52067V12.5357H86.3876C86.3876 13.447 86.1639 14.3589 86.1639 15.0426H81.6019V21.6527C81.6019 23.4758 82.5176 24.1602 83.8794 24.1602ZM99.8345 12.9907V26.2114H97.1033L96.872 24.6158C96.1876 25.7552 95.0495 26.6671 93.2264 26.6671C89.5795 26.6671 87.3026 23.932 87.3026 19.6014C87.3026 14.8145 89.8108 12.0795 94.8258 12.0795C96.6496 12.0795 98.2414 12.3082 99.8345 12.9907ZM96.872 23.2483V14.8145C96.1876 14.8145 95.5026 14.5876 94.8258 14.5876C91.6333 14.5876 90.2639 16.6382 90.2639 19.6014C90.2639 22.3364 91.4026 24.1602 93.9108 24.1602C95.0495 24.1602 96.1876 23.932 96.872 23.2483ZM114.882 17.322V26.2114H111.92V17.7783C111.92 15.7264 111.235 14.5876 108.273 14.5876C107.588 14.5876 106.904 14.8145 105.988 14.8145V26.2114H103.027V12.9907C104.85 12.5357 106.904 12.0795 108.496 12.0795C113.289 12.0795 114.882 14.1307 114.882 17.322ZM129.921 7.52067V26.2114H127.19L126.96 24.6158C126.275 25.7552 125.136 26.6671 123.09 26.6671C119.667 26.6671 117.39 23.932 117.39 19.6014C117.39 14.8145 119.897 12.0795 124.682 12.0795C125.597 12.0795 126.275 12.3082 126.96 12.3082V7.97693C127.875 7.52067 129.014 7.52067 129.921 7.52067ZM126.96 23.2483V14.8145C126.275 14.8145 125.367 14.5876 124.682 14.5876C121.721 14.5876 120.352 16.4101 120.352 19.6014C120.352 22.3364 121.49 24.1602 123.998 24.1602C125.136 24.1602 126.052 23.7039 126.96 23.2483ZM144.738 20.5133H135.399C135.622 23.0202 136.991 24.1602 139.73 24.1602C141.322 24.1602 142.915 23.7039 144.515 23.0202C144.284 23.932 144.061 24.8439 144.061 25.7552C142.691 26.4389 141.091 26.6671 139.73 26.6671C134.714 26.6671 132.205 23.932 132.205 19.3733C132.205 15.2701 134.252 12.0795 138.815 12.0795C143.146 12.0795 144.969 14.8145 144.969 18.2339C144.969 19.1451 144.738 19.8289 144.738 20.5133ZM135.168 18.0058H142.007C142.007 15.9545 140.637 14.5876 138.584 14.5876C136.537 14.5876 135.399 15.7264 135.168 18.0058ZM155 12.3082C155 13.2195 155 14.1307 154.769 14.8145C154.085 14.5876 153.401 14.5876 152.492 14.5876C151.807 14.5876 151.123 14.8145 150.438 14.8145V26.2114H147.477V12.9907C148.615 12.5357 150.892 12.0795 152.492 12.0795C153.401 12.0795 154.316 12.0795 155 12.3082Z" fill="var(--fill-0, #464646)"/>
</svg>
